<?xml version="1.0" standalone="no"?>
<!DOCTYPE svg PUBLIC "-//W3C//DTD SVG 1.1//EN" "http://www.w3.org/Graphics/SVG/1.1/DTD/svg11.dtd" >
<!--
2013-9-30: Created.
-->
<svg>
<metadata>
Created by iconfont
</metadata>
<defs>

<font id="iconfont" horiz-adv-x="1024" >
  <font-face
    font-family="iconfont"
    font-weight="500"
    font-stretch="normal"
    units-per-em="1024"
    ascent="896"
    descent="-128"
  />
    <missing-glyph />
    
    <glyph glyph-name="uploading" unicode="&#58912;" d="M994 352h-68c-16.568 0-30-13.432-30-30v-418h-768v418c0 16.568-13.432 30-30 30h-68c-16.568 0-30-13.432-30-30v-516c0-16.568 13.432-30 30-30h964c16.568 0 30 13.432 30 30v516c0 16.568-13.432 30-30 30zM448 544v-416c0-17.672 14.328-32 32-32h64c17.672 0 32 14.328 32 32v416h192l-256 256-256-256h192z"  horiz-adv-x="1024" />

    
    <glyph glyph-name="icon1" unicode="&#58892;" d="M882.979196 739.845657 140.752698 739.845657c-15.372106 0-27.833929-12.4608-27.833929-27.833929l0-816.449967c0-15.372106 12.4608-27.833929 27.833929-27.833929l222.670405 0c15.370059 0 27.833929 12.4608 27.833929 27.833929 0 15.379269-12.462846 27.833929-27.833929 27.833929l-194.8375 0L168.585603 684.177799l686.559665 0 0-508.584204L582.229504 175.593596c-13.238512 0-23.968901-10.889001-23.968901-24.305569l0-255.590166c0-0.091074 0-0.181125 0-0.272199l0-3.394307c0-9.829879 5.833869-18.694781 14.790868-22.454408 2.963495-1.248434 6.077416-1.851161 9.17087-1.851161 0.589424 0 1.175779 0.042979 1.762133 0.086981 7.80885-0.589424 15.819291 2.095731 21.788236 8.069793l296.885688 296.885688c5.220908 5.220908 8.15575 12.30321 8.15575 19.686365L910.814148 712.011728C910.813125 727.383834 898.349255 739.845657 882.979196 739.845657zM326.310857 492.81647l371.109156 0c15.372106 0 27.833929 12.452613 27.833929 27.824719 0 15.372106-12.4608 27.833929-27.833929 27.833929L326.310857 548.475118c-15.370059 0-27.833929-12.4608-27.833929-27.833929C298.476929 505.269084 310.939775 492.81647 326.310857 492.81647zM326.310857 351.809993l371.109156 0c15.372106 0 27.833929 12.452613 27.833929 27.824719 0 15.370059-12.4608 27.833929-27.833929 27.833929L326.310857 407.46864c-15.370059 0-27.833929-12.462846-27.833929-27.833929C298.476929 364.262606 310.939775 351.809993 326.310857 351.809993zM326.310857 209.723927l218.888266 0c15.372106 0 27.833929 12.452613 27.833929 27.824719 0 15.370059-12.4608 27.833929-27.833929 27.833929L326.310857 265.382575c-15.370059 0-27.833929-12.462846-27.833929-27.833929C298.476929 222.17654 310.939775 209.723927 326.310857 209.723927z"  horiz-adv-x="1024" />

    
    <glyph glyph-name="ruzhu" unicode="&#58915;" d="M846.998215-97.075551 174.91424-97.075551 174.91424 272.21212l278.307563 273.862321c4.869914 6.042623 27.929096 29.740348 62.065568 29.740348 21.723767 0 42.455951-10.159384 61.549821-29.309536l270.074042-274.804786 0-368.774995L846.998215-97.074527zM217.757001-54.249163l585.965595 0L803.722596 254.289935 546.148239 516.764905c-10.689457 10.691503-21.164019 16.303314-30.773887 16.303314-16.810874 0-29.740348-14.910595-29.740348-14.910595l-1.810229-1.823532L217.757001 254.3718 217.757001-54.249163 217.757001-54.249163zM958.500729 304.879124 590.155523 670.214786c0 0-71.765487 69.12638-161.373341-13.272281L62.074266 306.436596c0 0-4.653997-55.69037 54.006008-32.320103L449.470363 603.566854c0 0 55.515385 59.479673 114.219391 9.585309l349.382319-344.647481c0 0 55.426357-20.687158 45.385677 36.375465L958.500729 304.880147zM340.983533 654.177532 195.989231 654.177532 195.989231 434.100184l149.735279 143.43376L340.983533 654.177532zM535.80466 248.083583l46.979988 0 0-38.20002-46.979988 0L535.80466 248.083583 535.80466 248.083583zM535.80466 322.985504l0-38.198997 46.979988 0 0 38.198997L535.80466 322.985504zM438.868911 248.083583l46.765093 0 0-38.20002-46.765093 0L438.868911 248.083583 438.868911 248.083583zM438.868911 322.985504l0-38.198997 46.765093 0 0 38.198997L438.868911 322.985504zM535.80466 248.083583l46.979988 0 0-38.20002-46.979988 0L535.80466 248.083583 535.80466 248.083583zM535.80466 322.985504l0-38.198997 46.979988 0 0 38.198997L535.80466 322.985504zM438.868911 248.083583l46.765093 0 0-38.20002-46.765093 0L438.868911 248.083583 438.868911 248.083583zM438.868911 322.985504l0-38.198997 46.765093 0 0 38.198997L438.868911 322.985504zM438.868911 322.985504"  horiz-adv-x="1024" />

    
    <glyph glyph-name="shezhi" unicode="&#58925;" d="M511.605515 564.076308c-98.876961 0-179.283246-80.407308-179.283246-179.283246 0-98.877985 80.406285-179.283246 179.283246-179.283246 98.877985 0 179.283246 80.405261 179.283246 179.283246C690.888761 483.669 610.4835 564.076308 511.605515 564.076308zM511.605515 250.330628c-74.256214 0-134.462434 60.183707-134.462434 134.462434 0 74.277704 60.205197 134.461411 134.462434 134.461411S646.06795 459.071789 646.06795 384.793062C646.06795 310.514335 585.862753 250.330628 511.605515 250.330628zM959.81363 295.151439l0 179.283246-129.975237 21.51399c-3.591805 12.102642-8.53642 24.203238-14.794961 35.409464l77.078493 107.128903L765.276982 765.331985l-107.10639-77.103052c-11.20418 6.2831-23.306822 11.206226-35.410488 14.794961L601.248162 833.001177l-179.283246 0-21.512966-129.97626c-12.56313-3.589758-24.205285-8.973372-35.848463-14.794961l-106.23044 75.746148L131.526057 637.587556l76.204589-106.23044c-5.821589-11.206226-10.767228-23.306822-14.356986-35.409464L63.397401 474.433662l0-179.283246 129.97626-21.511943c4.02671-12.540617 8.973372-25.102724 15.231913-36.745902l-76.182077-106.23044 126.845966-126.845966 106.668415 76.641541c11.205203-5.383614 22.410406-10.307763 34.513048-13.896498l21.512966-129.97626 179.283246 0 21.511943 129.97626c12.562107 4.048199 24.64326 8.973372 36.307927 15.253402l107.127879-77.101006 126.845966 126.845966-77.101006 107.564831c5.361101 11.205203 10.305717 22.410406 13.897521 34.514071L959.81363 295.151439zM786.854417 286.375565c-2.886747-9.739828-7.133468-19.149129-11.335163-27.838022-7.090489-14.750959-5.558599-32.237215 3.983731-45.543266l54.9321-76.641541-73.008804-73.008804-76.1831 54.843072c-7.768941 5.603625-16.938788 8.448416-26.173103 8.448416-7.311523 0-14.598486-1.794879-21.252023-5.384637-8.643867-4.617158-18.055215-8.555863-28.756951-12.013615-16.018835-5.164626-27.750017-18.778692-30.55183-35.366486l-15.275915-92.464925L459.978694-18.594241l-15.275915 92.464925c-2.844791 16.938788-15.078417 30.792307-31.514761 35.671431-9.738805 2.867304-19.149129 7.135514-27.882024 11.337209-6.15007 2.910283-12.781094 4.39817-19.368116 4.39817-9.235338 0-18.361183-2.867304-26.131147-8.425903l-75.788104-54.406121-73.007781 73.009827 54.05615 75.30715c9.93528 13.875009 11.161201 32.301683 2.998287 47.359634-4.399193 8.206916-8.338922 17.748223-12.014638 29.237905-5.164626 15.998369-18.777669 27.728528-35.366486 30.506804l-92.464925 15.298428L108.219235 436.420907l92.464925 15.296381c16.938788 2.824325 30.792307 15.057951 35.672454 31.493272 2.735297 9.191336 6.544043 18.689664 11.118222 27.489074 7.79043 14.9679 6.500041 33.067116-3.326768 46.789653l-54.012148 75.263148 73.030293 72.725348 75.394131-53.729715c7.746428-5.513574 16.851806-8.337899 26.043143-8.337899 6.850012 0 13.700023 1.575892 20.025079 4.750187 9.104355 4.530177 18.777669 9.103332 28.145014 11.751648 16.632819 4.793166 29.04143 18.689664 31.930223 35.804461l15.275915 92.464925 103.253642 0 15.275915-92.464925c2.844791-16.938788 15.07944-30.792307 31.514761-35.673477 9.323343-2.7793 18.427698-6.544043 26.26213-10.942213 6.828522-3.807722 14.356986-5.690606 21.88545-5.690606 9.235338 0 18.383696 2.824325 26.175149 8.425903l76.204589 54.866608 72.964802-72.964802-54.865585-76.203566c-10.17678-14.116509-11.205203-32.850176-2.736321-48.104601 4.400217-7.79043 8.163937-16.85283 10.94119-26.219151 4.882194-16.435321 18.735713-28.668946 35.673477-31.493272l92.464925-15.296381 0-103.254665-92.464925-15.298428C805.589107 315.045535 791.735587 302.810886 786.854417 286.375565z"  horiz-adv-x="1024" />

    
    <glyph glyph-name="msnui-list-square" unicode="&#59089;" d="M128 704h128v-128h-128v128zM320 704h576v-128h-576v128zM128 448h128v-128h-128v128zM320 448h576v-128h-576v128zM128 192h128v-128h-128v128zM320 192h576v-128h-576v128z"  horiz-adv-x="1024" />

    
    <glyph glyph-name="guanbi" unicode="&#58948;" d="M534.577716 284.814136 933.205623 683.442042c6.237051 6.237051 6.237051 16.341177 0 22.577205s-16.341177 6.237051-22.577205 0L511.999488 307.392364 113.372605 706.02027c-6.237051 6.237051-16.341177 6.237051-22.577205 0s-6.237051-16.341177 0-22.577205l398.627906-398.627906L90.795401-113.81377c-6.237051-6.237051-6.237051-16.340153 0-22.577205 3.118014-3.118014 7.204076-4.677533 11.289114-4.677533 4.085038 0 8.170077 1.559519 11.289114 4.677533l398.626883 398.627906 398.627906-398.627906c3.119037-3.118014 7.203052-4.677533 11.289114-4.677533 4.085038 0 8.169053 1.559519 11.288091 4.677533 6.237051 6.238075 6.237051 16.341177 0 22.577205L534.577716 284.814136z"  horiz-adv-x="1024" />

    
    <glyph glyph-name="lajitong" unicode="&#58902;" d="M818.687 608.0069 626.024448 608.0069l0 37.076992c0 17.2134-14.0503 31.1747-31.3958 31.1747L429.51168 676.258592c-17.3466 0-31.3979-13.9612-31.3979-31.1747l0-37.076992L206.522368 608.0069c-17.3466 0-35.8287-12.3361-35.8287-34.5375 0-23.8705 18.4822-33.7357 35.8287-33.7357l8.551424 0 0-568.741888c0-27.4125 15.5433-46.7405 47.0958-46.7405l498.732032 0c32.2212 0 47.0968 12.6034 47.0968 46.7405L807.998424 539.73376l10.688512 0c17.3466 0 35.2717 8.6405 35.2717 33.068C853.9587 598.2984 836.0335 608.0069 818.687 608.0069zM740.1923-7.9649 283.902976-7.9649 283.902976 539.756288l456.28928 0L740.192256-7.964928zM397.4011 84.2893c12.5153 0 22.6693 10.155 22.6693 22.6693L420.0704 426.636032c0 12.5368-10.154 22.6908-22.6693 22.6908-12.5368 0-22.6908-10.154-22.6908-22.6908l0-319.67744C374.7113 94.4443 384.8653 84.2893 397.4011 84.2893zM511.4122 84.2893c12.5153 0 22.6703 10.155 22.6703 22.6693L534.0825 426.636032c0 12.5368-10.155 22.6908-22.6703 22.6908-12.5358 0-22.6898-10.154-22.6898-22.6908l0-319.67744C488.7224 94.4443 498.8764 84.2893 511.4122 84.2893zM625.4244 84.2893c12.5143 0 22.6683 10.155 22.6683 22.6693L648.0927 426.636032c0 12.5368-10.154 22.6908-22.6683 22.6908-12.5368 0-22.6918-10.154-22.6918-22.6908l0-319.67744C602.7325 94.4443 612.8876 84.2893 625.4244 84.2893z"  horiz-adv-x="1024" />

    
    <glyph glyph-name="ruzhuguanli" unicode="&#58911;" d="M900.31298 525.249137l-141.40045 0L529.697057 708.141584c-10.263761 8.54563-25.1324 12.370749-35.394115 3.776L265.087471 525.249137l-141.40045 0c-30.674627 0-55.472406-40.10951-55.472406-70.728878l0-499.259838c0-30.67565 24.796756-40.21491 55.472406-40.21491l776.624936 0c30.674627 0 55.472406 9.53926 55.472406 40.21491L955.784362 454.519236C955.784362 485.139627 930.987606 525.249137 900.31298 525.249137L900.31298 525.249137zM512.002047 658.328062l160.148443-133.078924L351.848487 525.249137 512.002047 658.328062 512.002047 658.328062zM179.159426 347.010687c-30.674627 0-55.472406 24.796756-55.472406 55.476499 0 30.67565 24.796756 55.472406 55.472406 55.472406 6.65763 0 12.870122-1.607614 18.809391-3.774977l-36.504402-30.341029c-11.816117-9.818623-13.423731-27.293623-3.660366-39.055504 9.92914-11.871375 27.403117-13.310144 39.054481-3.606131l35.999912 29.955242c0.554632-2.935865 1.777483-5.602601 1.777483-8.650007C234.636948 371.808466 209.839169 347.010687 179.159426 347.010687L179.159426 347.010687zM789.368168 25.989299 234.636948 25.989299l0 55.472406 554.73122 0L789.368168 25.989299 789.368168 25.989299zM789.368168 192.411633 234.636948 192.411633l0 55.472406 554.73122 0L789.368168 192.411633 789.368168 192.411633zM844.840574 347.010687c-30.67565 0-55.472406 24.796756-55.472406 55.476499 0 3.047406 1.218758 5.714142 1.718131 8.595772l35.998889-29.956266c5.15951-4.270257 11.486612-6.377244 17.754363-6.377244 7.985882 0 15.808034 3.440355 21.3564 10.038634 9.763364 11.761881 8.154727 29.236881-3.606131 39.055504l-36.499285 30.341029c5.878894 2.167363 12.091386 3.774977 18.749016 3.774977 30.674627 0 55.472406-24.795732 55.472406-55.472406C900.31298 371.808466 875.515201 347.010687 844.840574 347.010687L844.840574 347.010687zM844.840574 347.010687"  horiz-adv-x="1024" />

    
    <glyph glyph-name="renminbi" unicode="&#58941;" d="M758.909818 638.564139l-182.977543-311.293592 144.178718 0 0-68.778366-167.987772 0 0-94.784715 167.987772 0 0-69.651264-167.987772 0 0-138.00823-86.416931 0 0 138.00823L291.548031 94.056202l0 69.651264 174.15826 0 0 94.784715L291.548031 258.492181l0 68.778366 148.60341 0L258.919694 638.564139l97.43351 0c84.671135-154.623398 136.081834-252.658907 154.322399-294.106526l1.775897 0c6.170488 17.036567 23.086655 51.4408 50.718401 103.182598l103.603998 190.923927L758.909818 638.564139z"  horiz-adv-x="1024" />

    
    <glyph glyph-name="icon05" unicode="&#58944;" d="M776.860297 168.888893c-53.188386 0-101.344153-21.926382-135.929856-57.202816l-216.476333 98.707093c8.471952 21.540595 13.130042 44.982494 13.130042 69.493747 0 27.400047-5.827729 53.460586-16.290011 77.025281l225.181599 125.937271c34.099632-32.079626 79.983659-51.769061 130.385583-51.769061 105.011682 0 190.444447 85.432765 190.444447 190.444447 0 105.011682-85.432765 190.444447-190.444447 190.444447-105.011682 0-190.443423-85.432765-190.443423-190.444447 0-27.400047 5.826705-53.460586 16.288988-77.025281l-225.182622-125.936247c-34.100656 32.079626-79.984682 51.769061-130.386606 51.769061-105.011682 0-190.443423-85.432765-190.443423-190.444447s85.432765-190.444447 190.443423-190.444447c53.188386 0 101.344153 21.926382 135.930879 57.20384l216.476333-98.707093c-8.470929-21.539572-13.129019-44.982494-13.129019-69.493747 0-105.011682 85.432765-190.444447 190.443423-190.444447 105.011682 0 190.444447 85.432765 190.444447 190.444447S881.873002 168.888893 776.860297 168.888893zM776.860297 736.797227c63.560618 0 115.272373-51.711755 115.272373-115.272373s-51.711755-115.272373-115.272373-115.272373c-63.560618 0-115.27135 51.710732-115.27135 115.272373S713.300702 736.797227 776.860297 736.797227zM247.137657 164.614543c-63.560618 0-115.27135 51.711755-115.27135 115.272373s51.711755 115.272373 115.27135 115.272373c63.562665 0 115.273397-51.710732 115.273397-115.272373S310.700321 164.614543 247.137657 164.614543zM776.860297-136.827927c-63.560618 0-115.27135 51.711755-115.27135 115.272373s51.711755 115.272373 115.27135 115.272373c63.560618 0 115.272373-51.711755 115.272373-115.272373S840.421938-136.827927 776.860297-136.827927z"  horiz-adv-x="1024" />

    
    <glyph glyph-name="shangcheng" unicode="&#59179;" d="M1011.964343 559.637943c-0.285257 0.6784-0.213943 1.3568-0.356571 2.0352L878.392686 828.101486c-9.000229 17.499429-27.249371 29.500343-48.321829 29.500343L193.607314 857.601829c-20.821943 0-38.857143-11.785143-47.928686-28.964571L10.644114 558.601143c-5.500343-12.500114-9.749943-26.143086-9.749943-40.714971 0-5.7856 1.000229-11.357257 2.177829-16.8576 11.214629-52.2496 53.463771-92.999314 106.536229-101.999543l0-455.714743c0-20.214857 16.356571-36.571429 36.571429-36.571429l731.428571 0c20.214857 0 36.571429 16.356571 36.571429 36.571429L914.179657 399.030857c54.070857 9.179429 97.106286 51.214629 107.357257 104.8576 0.213943 1.214171 0.285257 2.499657 0.464457 3.713829 0.643657 4.072229 0.8576 8.285257 1.142857 12.500114C1022.608457 534.423771 1017.393371 547.280457 1011.964343 559.637943zM841.0368-20.112457l-658.285714 0L182.751086 407.173486c16.749714 7.107657 31.535543 17.749943 43.893029 30.714514 8.572343-9.000229 18.464914-16.464457 29.249829-22.749257l0-288.963657c0-20.214857 16.356571-36.571429 36.571429-36.571429l438.857143 0c20.214857 0 36.571429 16.356571 36.571429 36.571429L767.893943 415.136914c10.784914 6.286629 20.679314 13.750857 29.249829 22.749257 12.357486-12.964571 27.143314-23.606857 43.893029-30.714514L841.0368-20.112457zM329.0368 162.744686 329.0368 397.566171c34.464914 1.929143 65.393371 16.821029 87.786057 40.321829 24-25.179429 57.642057-41.071543 95.071086-41.071543s71.071086 15.892114 95.071086 41.071543c22.392686-23.5008 53.321143-38.392686 87.786057-40.321829l0-234.821486L329.0368 162.744686zM892.2496 469.959314c-29.822171 0-54.213486 22.500571-57.821257 51.357257 0-0.071314 0-0.285257 0-0.250514-2.428343 18.249143-18.177829 32.427886-37.1072 32.427886-18.499657 0-33.892571-13.463771-36.856686-31.107657-0.036571-0.285257-0.071314 1.142857-0.142629 3.713829-1.250743-31.1424-26.784914-56.142629-58.249143-56.142629-30.965029 0-56.142629 24.250514-58.143086 54.714514-0.036571-1.786514-0.036571-2.929371-0.071314-2.750171-2.428343 18.249143-18.177829 32.427886-37.1072 32.427886-18.499657 0-33.892571-13.463771-36.856686-31.107657 0-0.036571 0 0.142629 0 0.142629-2.642286-29.856914-27.499886-53.429029-58.000457-53.429029-30.142171 0-54.749257 22.999771-57.857829 52.357486-2.642286 18.0352-18.2144 32.036571-36.999314 32.036571-18.499657 0-33.892571-13.463771-36.856686-31.107657-0.036571-0.250514-0.071314 1.000229-0.142629 3.285943-1.000229-31.3216-26.678857-56.572343-58.322286-56.572343-30.036114 0-54.606629 22.893714-57.857829 52.072229 0 0 0-0.142629 0-0.107886-2.428343 18.249143-18.177829 32.427886-37.1072 32.427886-18.499657 0-33.892571-13.463771-36.856686-31.107657-0.036571-0.213943-0.071314 0.821029-0.107886 2.428343-1.464686-30.928457-26.929371-55.714743-58.249143-55.714743-29.7856 0-54.178743 22.500571-57.786514 51.320686l131.607771 263.178971 613.070629 0 131.607771-263.178971C946.428343 492.458057 922.037029 469.959314 892.2496 469.959314z"  horiz-adv-x="1024" />

    
    <glyph glyph-name="icon" unicode="&#58907;" d="M425.283498 358.236356 180.009282 358.236356l0-246.811222L9.473257 111.425134l0-35.0861 307.559794-285.628296 278.754748 282.438651 0 38.275745-170.533978 0 0 246.811222L425.283498 358.236356zM703.453938 812 424.69919 529.544977l0-38.335097 170.503279 0 0-246.794849 245.216911 0L840.41938 491.20988l170.533978 0 0 35.133172L703.453938 812z"  horiz-adv-x="1024" />

    
    <glyph glyph-name="jiudianxinxi" unicode="&#59064;" d="M998.4-134.4h-44.8v499.2c0 44.8-38.4 83.2-83.2 83.2h-102.4c-12.8 0-25.6-12.8-25.6-25.6s12.8-25.6 25.6-25.6h102.4c12.8 0 25.6-12.8 25.6-25.6v-499.2h-192v812.8c0 44.8-38.4 83.2-83.2 83.2h-460.8c-44.8 0-83.2-38.4-83.2-83.2v-819.2l-51.2 0c-12.8 0-25.6-12.8-25.6-25.6s12.8-25.6 25.6-25.6h966.4c12.8 0 25.6 12.8 25.6 25.6s-6.4 25.6-19.2 25.6zM134.4-134.4v819.2c0 12.8 12.8 25.6 25.6 25.6h467.2c12.8 0 25.6-12.8 25.6-25.6v-819.2l-518.4 0zM505.6 518.4h-224c-12.8 0-25.6-12.8-25.6-25.6s12.8-25.6 25.6-25.6h224c12.8 0 25.6 12.8 25.6 25.6s-12.8 25.6-25.6 25.6zM505.6 320h-224c-12.8 0-25.6-12.8-25.6-25.6 0-12.8 12.8-25.6 25.6-25.6h224c12.8 0 25.6 12.8 25.6 25.6 0 12.8-12.8 25.6-25.6 25.6zM505.6 153.6h-224c-12.8 0-25.6-12.8-25.6-25.6s6.4-32 25.6-32h224c12.8 0 25.6 12.8 25.6 25.6s-12.8 32-25.6 32z"  horiz-adv-x="1024" />

    
    <glyph glyph-name="yingyong" unicode="&#59116;" d="M425.408341 74.159392 425.408341 74.159392 425.408341 210.185438 289.382295 210.185438c-75.126025 0-136.026046-60.902068-136.026046-136.02707s60.900022-136.026046 136.026046-136.026046C364.507296-61.866654 425.408341-0.966633 425.408341 74.159392L425.408341 74.159392zM493.421364 74.159392c0-112.688525-91.351568-204.040093-204.03907-204.040093-112.688525 0-204.040093 91.351568-204.040093 204.040093S176.69377 278.199485 289.382295 278.199485l136.026046 0 68.013023 0 0-68.014046L493.421364 74.159392zM606.777085 74.159392 606.777085 210.185438l136.026046 0c75.125001 0 136.02707-60.902068 136.02707-136.02707s-60.902068-136.026046-136.02707-136.026046C667.679154-61.867678 606.777085-0.966633 606.777085 74.159392zM538.764062 74.159392c0-112.688525 91.351568-204.040093 204.040093-204.040093s204.040093 91.351568 204.040093 204.040093S855.491657 278.199485 742.804155 278.199485L606.778108 278.199485 538.764062 278.199485l0-68.014046L538.764062 74.159392zM425.408341 527.580229l0-136.026046L289.382295 391.554182c-75.126025 0-136.026046 60.901045-136.026046 136.026046 0 75.126025 60.900022 136.026046 136.026046 136.026046C364.507296 663.606275 425.408341 602.706253 425.408341 527.580229zM493.421364 527.580229c0 112.689548-91.351568 204.040093-204.03907 204.040093-112.688525 0-204.040093-91.350544-204.040093-204.040093 0-112.688525 91.351568-204.040093 204.040093-204.040093l136.026046 0 68.013023 0 0 68.013023L493.421364 527.580229zM606.777085 527.580229l0-136.026046 136.026046 0c75.125001 0 136.02707 60.901045 136.02707 136.026046 0 75.126025-60.902068 136.026046-136.02707 136.026046C667.679154 663.607298 606.777085 602.706253 606.777085 527.580229zM538.764062 527.580229 538.764062 527.580229c0 112.689548 91.351568 204.040093 204.040093 204.040093s204.040093-91.351568 204.040093-204.040093c0-112.687502-91.351568-204.040093-204.040093-204.040093L606.778108 323.540136 538.764062 323.540136l0 68.013023L538.764062 527.580229z"  horiz-adv-x="1024" />

    
    <glyph glyph-name="fenxiang" unicode="&#59192;" d="M927.65784 294.730089c-16.679524 0-30.289198-13.507345-30.289198-30.289198l0-285.905466c0-36.735885-29.879884-66.513441-66.513441-66.513441L192.530828-87.978015c-36.735885 0-66.513441 29.879884-66.513441 66.513441L126.017388 578.998301c0 36.735885 29.879884 66.513441 66.513441 66.513441l208.033576 0c16.679524 0 30.289198 13.507345 30.289198 30.289198 0 16.679524-13.507345 30.289198-30.289198 30.289198L192.530828 706.090137C122.538223 706.090137 65.541321 649.093235 65.541321 578.998301l0-600.462876c0-70.094934 56.996902-126.989507 126.989507-126.989507l638.324373 0c70.094934 0 126.989507 56.996902 126.989507 126.989507L957.844709 264.54322C957.844709 281.222744 944.337364 294.730089 927.65784 294.730089L927.65784 294.730089zM292.91496 117.497352c-2.967523-16.474868 7.879285-32.233437 24.354152-35.200959 1.841911-0.306985 3.683821-0.511642 5.525732-0.511642 14.325972 0 27.01469 10.232837 29.675227 24.763466 0.204657 1.22794 24.251824 128.524433 107.751774 255.002298 48.605976 73.574098 107.547117 132.105926 175.083841 173.958229 64.466873 39.908064 137.324673 64.773858 217.345458 74.290397l-98.439892-101.612072c-11.665434-11.972419-11.358449-31.107825 0.716299-42.773259 5.832717-5.730389 13.507345-8.493255 21.079644-8.493255 7.879285 0 15.758569 3.069851 21.693614 9.209553l152.469272 157.278705c0.102328 0.102328 0.204657 0.204657 0.306985 0.306985 0.204657 0.204657 0.306985 0.306985 0.511642 0.511642 0.204657 0.204657 0.306985 0.409313 0.511642 0.61397 0 0 0 0.102328 0.102328 0.102328 0.102328 0.204657 0.306985 0.409313 0.409313 0.511642 0.204657 0.204657 0.306985 0.409313 0.511642 0.61397 0.102328 0.204657 0.306985 0.409313 0.409313 0.61397 0.204657 0.204657 0.306985 0.511642 0.511642 0.716299 0.102328 0.204657 0.204657 0.306985 0.306985 0.511642 0.102328 0.204657 0.204657 0.306985 0.306985 0.511642 0 0.102328 0.102328 0.102328 0.102328 0.204657 0 0 0.102328 0.102328 0.102328 0.102328 0.102328 0.102328 0.204657 0.306985 0.306985 0.511642 0.204657 0.306985 0.306985 0.511642 0.511642 0.818627 0.102328 0.204657 0.204657 0.306985 0.204657 0.511642 0 0.102328 0.102328 0.102328 0.102328 0.204657 0.102328 0.204657 0.204657 0.409313 0.306985 0.61397 0.102328 0.204657 0.204657 0.409313 0.306985 0.511642 0.102328 0.204657 0.204657 0.511642 0.306985 0.716299 0.102328 0.204657 0.204657 0.409313 0.306985 0.61397 0.102328 0.204657 0.204657 0.511642 0.306985 0.716299 0.102328 0.204657 0.204657 0.511642 0.204657 0.716299 0.102328 0.204657 0.102328 0.409313 0.204657 0.61397 0.102328 0.306985 0.204657 0.511642 0.204657 0.818627 0.102328 0.204657 0.102328 0.409313 0.204657 0.61397 0.102328 0.306985 0.102328 0.511642 0.204657 0.818627 0 0.204657 0.102328 0.306985 0.102328 0.511642 0 0 0 0.102328 0 0.102328 0.102328 0.306985 0.102328 0.511642 0.204657 0.818627 0 0.102328 0.102328 0.306985 0.102328 0.409313 0 0.102328 0 0.204657 0.102328 0.306985 0 0.204657 0.102328 0.409313 0.102328 0.61397 0 0.102328 0 0.306985 0.102328 0.409313 0 0.204657 0 0.409313 0.102328 0.61397 0 0.102328 0 0.204657 0 0.306985 0 0.102328 0 0.204657 0 0.306985 0 0.102328 0 0.102328 0 0.204657 0 0.306985 0 0.511642 0.102328 0.818627 0 0 0 0.102328 0 0.102328 0 0.204657 0 0.306985 0 0.511642 0 0 0 0 0 0 0 0.306985 0 0.61397 0 0.920955l0 0 0 0c0 0.511642 0 1.023284 0 1.432597 0 0 0 0.102328 0 0.102328 0 0.102328 0 0.204657 0 0.306985 0 0 0 0 0 0 0 0.306985-0.102328 0.716299-0.102328 1.023284 0 0.102328 0 0.204657 0 0.306985l0 0c0 0.102328 0 0.102328 0 0.204657 0 0.306985-0.102328 0.61397-0.102328 0.920955 0 0.102328 0 0.306985-0.102328 0.409313 0 0.102328 0 0.102328 0 0.204657 0 0.306985-0.102328 0.511642-0.102328 0.818627 0 0.204657-0.102328 0.306985-0.102328 0.511642 0 0 0 0.102328 0 0.102328 0 0.102328 0 0.102328 0 0.204657 0 0.204657-0.102328 0.409313-0.102328 0.61397-0.102328 0.306985-0.204657 0.61397-0.204657 0.920955 0 0.102328-0.102328 0.204657-0.102328 0.409313-0.102328 0.409313-0.204657 0.716299-0.306985 1.125612 0 0.102328 0 0.102328-0.102328 0.204657-0.102328 0.306985-0.204657 0.511642-0.306985 0.818627 0 0 0 0.102328 0 0.102328 0 0.102328-0.102328 0.204657-0.102328 0.306985 0 0 0 0.102328 0 0.102328-0.102328 0.306985-0.204657 0.511642-0.306985 0.818627-0.102328 0.102328-0.102328 0.306985-0.204657 0.409313 0 0 0 0 0 0-0.102328 0.306985-0.204657 0.511642-0.409313 0.818627l0 0c-0.306985 0.61397-0.61397 1.125612-0.920955 1.739582l0 0c-0.204657 0.409313-0.511642 0.818627-0.716299 1.22794 0 0-0.102328 0.102328-0.102328 0.102328-0.102328 0.204657-0.306985 0.409313-0.409313 0.716299l0 0c-0.102328 0.102328-0.102328 0.204657-0.204657 0.306985s-0.204657 0.204657-0.306985 0.306985c-0.102328 0.102328-0.102328 0.204657-0.204657 0.306985-0.102328 0.102328-0.102328 0.204657-0.204657 0.204657-0.102328 0.102328-0.102328 0.204657-0.204657 0.306985-0.204657 0.204657-0.306985 0.409313-0.511642 0.61397-0.102328 0.102328-0.204657 0.204657-0.204657 0.306985 0 0.102328-0.102328 0.102328-0.102328 0.204657-0.204657 0.204657-0.409313 0.511642-0.61397 0.716299-0.102328 0.102328-0.102328 0.102328-0.204657 0.204657-0.306985 0.306985-0.61397 0.61397-0.920955 0.920955 0 0-0.102328 0.102328-0.102328 0.102328-0.306985 0.306985-0.61397 0.61397-1.023284 0.920955 0 0 0 0 0 0-0.306985 0.306985-0.716299 0.61397-1.023284 0.920955 0 0 0 0-0.102328 0.102328-0.306985 0.306985-0.716299 0.511642-1.023284 0.818627 0 0-0.102328 0.102328-0.102328 0.102328-0.306985 0.204657-0.61397 0.511642-0.920955 0.716299-0.102328 0.102328-0.204657 0.102328-0.306985 0.204657-0.204657 0.102328-0.306985 0.204657-0.511642 0.306985-0.102328 0.102328-0.306985 0.204657-0.409313 0.204657-0.102328 0.102328-0.306985 0.204657-0.409313 0.306985-0.102328 0.102328-0.306985 0.204657-0.409313 0.204657-0.102328 0.102328-0.306985 0.204657-0.409313 0.204657-0.204657 0.102328-0.306985 0.204657-0.511642 0.306985-0.204657 0.102328-0.511642 0.306985-0.716299 0.409313-0.204657 0.102328-0.409313 0.204657-0.61397 0.306985-0.204657 0.102328-0.511642 0.204657-0.716299 0.306985-0.204657 0.102328-0.409313 0.204657-0.716299 0.306985-0.204657 0.102328-0.409313 0.204657-0.716299 0.306985-0.204657 0.102328-0.511642 0.204657-0.716299 0.306985-0.204657 0.102328-0.409313 0.102328-0.61397 0.204657-0.102328 0-0.306985 0.102328-0.409313 0.102328l-222.052563 73.574098c-15.860897 5.218747-32.949735-3.376836-38.27081-19.237734-5.218747-15.860897 3.376836-32.949735 19.237734-38.27081l89.332667-29.572899c-65.592485-14.223643-126.580194-38.577796-182.144499-72.960128-75.006695-46.45708-140.189867-111.12861-193.707605-192.070351C319.418007 258.198861 293.938243 123.227741 292.91496 117.497352L292.91496 117.497352z"  horiz-adv-x="1024" />

    
    <glyph glyph-name="v" unicode="&#58885;" d="M964.394972 746.391746l0-33.033347c-35.335786-4.41352-60.071144-13.654998-74.206072-27.740808-14.134929-14.102183-29.164227-40.96397-45.057195-80.585363L543.00055-172.53722l-35.783994 0L167.958828 620.924173c-16.788361 37.95852-31.370475 61.590753-43.729967 70.863954-12.375865 9.274224-34.903951 16.548908-67.586304 21.856797l0 32.745798L502.068302 746.390723l0-32.745798c-46.017056 0-76.540234-3.101641-91.569532-9.289574-15.045671-6.187933-22.560832-21.649066-22.560832-46.400796 0-9.737782 5.516644-28.52466 16.58063-56.361659 11.048637-27.853371 18.786878-47.072085 23.216771-57.688887L601.472266 124.876494l168.43006 436.31218c7.850805 19.442818 14.182001 36.663014 18.97926 51.693336s7.211239 28.285207 7.211239 39.781028c0 40.644699-37.97387 60.98291-113.922632 60.98291l0 32.745798L964.394972 746.391746z"  horiz-adv-x="1024" />

    
    <glyph glyph-name="bangzhu1" unicode="&#59060;" d="M563.2 51.010462c0-28.120615-23.079385-51.121231-51.2-51.121231s-50.569846 23.000615-50.569846 51.121231c0 28.199385 22.449231 50.609231 50.569846 50.609231S563.2 79.209846 563.2 51.010462zM649.019077 553.44c33.870769-30.680615 51.121231-67.820308 51.121231-112.009846 0-25.560615-6.340923-48.64-17.880615-70.459077-12.169846-21.110154-35.249231-47.300923-69.750154-77.981538-23.709538-20.519385-39.069538-35.879385-46.119385-45.489231-7.010462-10.279385-12.169846-21.110154-15.990154-33.870769-3.190154-12.8-5.159385-19.849846-5.750154-48.600615-1.220923-17.998769-15.990154-32.689231-34.540308-32.689231-19.180308 0-34.579692 15.399385-34.579692 34.579692l0.630154 3.899077c-0.630154 7.010462 0 40.211692 11.579077 74.830769 5.12 15.399385 15.320615 30.680615 28.199385 46.710154 9.531077 10.870154 26.899692 28.199385 51.121231 49.939692 25.009231 21.779692 40.999385 38.990769 48.679385 51.869538 7.089231 12.760615 10.870154 26.899692 10.870154 42.180923 0 28.199385-10.870154 52.499692-32.689231 73.570462-21.779692 21.149538-48.009846 31.389538-79.990154 31.389538-30.011077 0-55.650462-9.609846-76.130462-28.16-19.889231-19.219692-33.28-49.230769-39.699692-89.6l-0.669538 0c-1.929846-17.880615-17.289846-32.019692-36.430769-32.019692-19.889231 0-36.509538 15.990154-36.509538 36.509538l0.630154 4.489846L324.489846 432.529231c6.380308 53.76 26.269538 95.350154 58.88 124.100923 32.610462 28.829538 76.130462 43.52 129.851077 43.52C569.619692 600.150154 614.990769 584.790154 649.019077 553.44zM512-143.510154C267.500308-143.510154 68.489846 55.500308 68.489846 300 68.489846 544.460308 267.500308 743.549538 512 743.549538S955.510154 544.460308 955.510154 300C955.510154 55.500308 756.499692-143.510154 512-143.510154zM512 812C229.100308 812 0 582.899692 0 300s229.100308-512 512-512 512 229.100308 512 512S794.899692 812 512 812z"  horiz-adv-x="1024" />

    
    <glyph glyph-name="right-1" unicode="&#58897;" d="M511.945-62.713c-247.066 0-448.054 200.988-448.054 448.060 0 247.066 200.988 448.054 448.054 448.054 247.073 0 448.060-200.988 448.060-448.054 0-247.072-200.989-448.060-448.060-448.060v0zM511.945 769.107c-211.608 0-383.758-172.151-383.758-383.758 0-211.581 172.151-383.765 383.758-383.765 211.581 0 383.765 172.185 383.765 383.765-0.001 211.608-172.186 383.758-383.765 383.758v0zM726.948 504.175c-12.545 12.448-32.837 12.322-45.249-0.254l-233.311-235.869-103.28 106.122c-12.35 12.707-32.612 12.932-45.249 0.64-12.678-12.322-12.965-32.612-0.64-45.251l126.032-129.522c0.064-0.093 0.19-0.093 0.254-0.19 0.064-0.064 0.097-0.191 0.161-0.254 2.017-1.988 4.512-3.204 6.881-4.547 1.25-0.674 2.241-1.793 3.52-2.305 3.873-1.601 8-2.398 12.096-2.398 4.063 0 8.131 0.796 11.969 2.334 1.25 0.513 2.208 1.539 3.394 2.178 2.398 1.344 4.898 2.525 6.945 4.542 0.063 0.064 0.098 0.196 0.19 0.259 0.064 0.094 0.161 0.128 0.259 0.191l256.254 259.042c12.452 12.608 12.32 32.865-0.226 45.282v0zM726.948 504.175z"  horiz-adv-x="1025" />

    
    <glyph glyph-name="iconfontbaobiao" unicode="&#58913;" d="M809.743775 28.457723c-5.473399 0-9.953072 4.480889-9.953072 9.957937L799.790703 643.786984c0 5.473399-4.480889 9.954289-9.959154 9.954289l-59.741543 0c-5.478264 0-9.957937-4.480889-9.957937-9.954289L720.132068 38.41566c0-5.477048-4.480889-9.957937-9.959154-9.957937l-86.381185 0c-5.478264 0-9.959154 4.480889-9.959154 9.957937L613.832575 776.707874c0 5.478264-4.479673 9.957937-9.957937 9.957937l-59.74276 0c-5.477048 0-9.957937-4.479673-9.957937-9.957937L534.17394 38.41566c0-5.477048-4.480889-9.957937-9.959154-9.957937l-87.849272 0c-5.478264 0-9.959154 4.480889-9.959154 9.957937L426.40636 527.292373c0 5.473399-4.479673 9.954289-9.957937 9.954289l-59.741543 0c-5.478264 0-9.959154-4.480889-9.959154-9.954289l0-488.880362c0-5.473399-4.479673-9.954289-9.957937-9.954289l-60.730404 0c-5.478264 0-9.957937 4.480889-9.957937 9.954289L266.101446 403.622744c0 5.473399-4.480889 9.954289-9.959154 9.954289L196.400749 413.577033c-5.478264 0-9.959154-4.480889-9.959154-9.954289L186.441595 38.41566c0-5.477048-4.479673-9.957937-9.957937-9.957937l-90.191887 0c-5.478264 0-9.959154-4.480889-9.959154-9.959154l0-29.870164c0-5.478264 4.480889-9.959154 9.959154-9.959154l851.421293 0c5.473399 0 9.954289 4.480889 9.954289 9.959154l0 29.870164c0 5.478264-4.480889 9.959154-9.954289 9.959154L809.743775 28.457723 809.743775 28.457723zM809.743775 28.457723"  horiz-adv-x="1024" />

    
    <glyph glyph-name="user" unicode="&#58940;" d="M637.953 347.722c71.731 40.299 120.349 116.816 120.349 204.543 0 129.463-105.705 234.781-235.642 234.781-129.936 0-235.629-105.319-235.629-234.781 0-84.393 45.042-158.308 112.303-199.684-152.042-47.787-262.606-189.523-262.606-356.601 0-5.058 0.561-9.957 0.762-14.974h52.356c-0.23 4.987-0.761 9.915-0.761 14.974 0 177.28 144.855 321.502 322.909 321.502 178.054 0 322.91-144.223 322.91-321.502 0-5.058-0.532-9.987-0.776-14.974h52.372c0.201 5.016 0.76 9.915 0.76 14.974 0.001 162.089-104.252 300.003-249.309 351.742zM339.389 552.264c0 100.589 82.208 182.424 183.271 182.424 101.065 0 183.272-81.835 183.272-182.424 0-100.59-82.207-182.424-183.272-182.424-101.063 0-183.271 81.834-183.271 182.424z"  horiz-adv-x="1024" />

    
    <glyph glyph-name="quxiao" unicode="&#59191;" d="M489.04 896c15.3344 0 30.6688 0 46.0032 0 1.6208-0.2784 3.232-0.6288 4.8608-0.8256 22.2992-2.6864 44.8448-4.0672 66.864-8.2336 116.944-22.1296 215.3904-77.9408 292.4256-168.3856 105.9648-124.4096 144.0912-268.568 115.76-429.4032-16.976-96.3648-60.1552-180.568-126.7824-252.1328-85.264-91.584-190.3408-145.472-314.7056-161.0192-68.3136-8.5392-135.7824-3.464-201.8352 15.8256-124.1792 36.264-221.4976 109.1296-291.6384 217.7136C36.4432 176.9536 11.104 251.024 2.84 330.88 1.7632 341.2752 0.9408 351.696 0 362.104c0 14.664 0 29.328 0 43.992 0.2768 1.944 0.7104 3.8784 0.808 5.8304 1.712 34.3696 6.6928 68.2816 15.7424 101.4576C53.9216 650.4064 133.9824 755.192 256.1648 827.4032c62.3392 36.8432 130.0544 58.2384 202.1168 65.7104C468.5248 894.176 478.7872 895.0432 489.04 896zM374.6592 208.8608c46.0112 46 92.0272 92.0048 138.68 138.648 45.6912-45.6848 91.7008-91.688 137.296-137.2752 11.8848 11.7568 23.8192 23.5648 36.208 35.8208-45.9056 45.8864-91.9392 91.9024-137.952 137.8976 46.1328 46.1168 92.1696 92.1376 137.8896 137.8432-12.5552 12.5056-24.5536 24.4576-37.2016 37.056-45.6784-45.6672-91.7136-91.6928-137.9696-137.9376-45.9024 45.904-91.9232 91.9264-137.4048 137.4096-12.3024-12.3136-24.248-24.272-36.9968-37.0336 45.624-45.6096 91.6544-91.624 138.1264-138.0816-45.7984-45.7808-91.8208-91.784-137.56-137.5056C349.7856 233.704 361.664 221.84 374.6592 208.8608z"  horiz-adv-x="1024" />

    
    <glyph glyph-name="tianjia" unicode="&#58900;" d="M831 405h-298v298h-42v-298h-298v-42h298v-298h42v298h298v42z"  horiz-adv-x="1024" />

    
    <glyph glyph-name="star_full" unicode="&#58919;" d="M958.733 484.651l-299.475 57.753-147.26 268.060-147.257-268.060-299.476-57.753 208.463-223.396-37.841-303.719 276.111 129.984 276.093-129.984-37.841 303.719z"  horiz-adv-x="1024" />

    
    <glyph glyph-name="qian2" unicode="&#58982;" d="M512.07168 883.677184C236.273664 883.677184 11.956224 659.361792 11.956224 383.561728c0-275.798016 224.415744-500.21376 500.115456-500.21376 275.697664 0 500.215808 224.315392 500.215808 500.21376C1012.287488 659.462144 787.970048 883.677184 512.07168 883.677184L512.07168 883.677184zM512.07168-62.971904C265.86112-62.971904 65.536 137.351168 65.536 383.561728c0 246.21056 200.323072 446.435328 446.53568 446.435328 246.21056 0 446.533632-200.224768 446.533632-446.435328C958.605312 137.351168 758.382592-62.971904 512.07168-62.971904L512.07168-62.971904zM633.12896 645.165056l-79.47264-146.345984c-21.192704-39.686144-34.086912-66.072576-38.883328-79.171584l-1.398784 0c-13.993984 31.791104-53.38112 106.862592-118.358016 225.519616l-74.774528 0 139.04896-238.712832L345.33376 406.454272l0-52.779008 133.449728 0 0-72.675328L345.33376 280.999936l0-53.379072 133.548032 0 0-105.857024 66.277376 0L545.159168 227.71712l128.751616 0 0 53.379072L545.25952 281.096192l0 72.675328 128.751616 0 0 52.781056-110.45888 0 140.345344 238.610432L633.12896 645.163008 633.12896 645.165056 633.12896 645.165056zM633.12896 645.165056"  horiz-adv-x="1024" />

    
    <glyph glyph-name="4taocanguanli" unicode="&#59201;" d="M1003.397776 593.951733 524.812817 335.441051c-4.702092-2.550079-9.927093-3.837398-15.098883-3.837398-5.275143 0-10.529821 1.315972-15.281031 3.91517L20.862143 594.030527c-10.395768 5.682419-16.83134 16.714683-16.620539 28.610618 0.172939 11.889795 6.971785 22.709211 17.539468 28.01403L500.316913 891.759419c9.107425 4.595668 19.744693 4.550643 28.800953-0.044002l473.572806-241.099127c10.556427-5.382591 17.326621-16.202007 17.461697-28.148084C1020.307911 610.572272 1013.822197 599.58401 1003.397776 593.951733L1003.397776 593.951733 1003.397776 593.951733zM1003.054969 359.020072 524.467963 100.519624c-4.722558-2.548032-9.927093-3.836375-15.124466-3.836375-5.303796 0-10.502192 1.288343-15.281031 3.865028L20.50808 359.070214c-10.400884 5.722328-16.820084 16.754592-16.659425 28.595268 0.205685 11.917424 7.021927 22.710234 17.578354 28.069289l100.009761 50.360991 68.153216-37.20946-85.062328-42.849924 404.922263-221.005486 409.607982 221.295082-79.742159 40.590464 68.347644 36.914748 94.655823-48.180326c10.579963-5.381567 17.300015-16.195867 17.461697-28.092825C1019.96408 375.634472 1013.477342 364.663606 1003.054969 359.020072L1003.054969 359.020072 1003.054969 359.020072zM1003.054969 135.203564 524.467963-123.295861c-4.722558-2.600221-9.927093-3.88754-15.124466-3.88754-5.303796 0-10.502192 1.339508-15.281031 3.90903L20.50808 135.254729c-10.400884 5.671163-16.820084 16.697287-16.659425 28.593222 0.205685 11.924587 7.021927 22.715351 17.578354 28.069289l94.036723 43.35032 68.152193-37.204343-79.088266-35.845393 404.922263-221.055628 409.607982 221.317595-74.727958 36.630269 68.347644 36.893258 89.6406-44.165896c10.579963-5.381567 17.305131-16.200984 17.461697-28.14706C1019.96408 151.796474 1013.477342 140.796956 1003.054969 135.203564L1003.054969 135.203564 1003.054969 135.203564zM1003.054969 135.203564"  horiz-adv-x="1024" />

    
    <glyph glyph-name="menu" unicode="&#58887;" d="M0 793.6h119.872v-119.872h-119.872v119.872zM229.76 793.6h794.24v-119.872h-794.24v119.872zM0 444.032h119.872v-119.872h-119.872v119.872zM229.76 444.032h794.24v-119.872h-794.24v119.872zM0 94.272h119.872v-119.872h-119.872v119.872zM229.76 94.272h794.24v-119.872h-794.24v119.872z"  horiz-adv-x="1024" />

    
    <glyph glyph-name="dingdan" unicode="&#58996;" d="M776.448 744.448l-48 0c-13.312 0-28.544-8.192-28.544-21.504 0-13.312 15.36-26.496 28.544-26.496l48 0c28.544 0 48-19.456 48-48L824.448 96c0-28.544-19.456-48-48-48L259.712 48c-28.544 0-60.288 19.456-60.288 48L199.424 648.448c0 28.544 19.456 48 48 48l60.288 0c13.312 0 18.432 13.312 18.432 26.496 0 13.312-5.12 21.504-18.432 21.504l-60.288 0c-67.456 0-96-41.856-96-97.024L151.424 101.12c0-59.264 35.712-101.12 101.12-101.12l518.784 0c65.408 0 101.12 34.688 101.12 101.12L872.448 647.552C872.448 702.592 838.784 744.448 776.448 744.448L776.448 744.448 776.448 744.448zM307.712 528c0-13.312 11.264-24.576 24.448-24.576l360.576 0c13.312 0 24.576 11.264 24.576 24.576 0 13.312-11.264 24.448-24.576 24.448L332.288 552.448C318.976 552.576 307.712 541.312 307.712 528L307.712 528 307.712 528zM691.712 419.712 332.288 419.712c-13.312 0-24.448-11.264-24.448-24.576 0-13.312 11.264-24.448 24.448-24.448l360.576 0c13.312 0 24.576 11.264 24.576 24.448C716.288 409.472 705.024 419.712 691.712 419.712L691.712 419.712 691.712 419.712zM691.712 275.712 332.288 275.712c-13.312 0-24.448-11.264-24.448-24.448 0-13.312 11.264-24.448 24.448-24.448l360.576 0c13.312 0 24.576 11.264 24.576 24.448C716.288 265.472 705.024 275.712 691.712 275.712L691.712 275.712 691.712 275.712zM429.312 684.288l167.552 0c19.456 0 35.712 19.456 35.712 41.856 0 22.528-16.384 41.856-36.736 41.856L429.312 768c-20.48 0-36.736-19.456-36.736-41.856C392.448 703.616 408.832 684.288 429.312 684.288L429.312 684.288 429.312 684.288zM429.312 684.288"  horiz-adv-x="1024" />

    
    <glyph glyph-name="gongsibiaozhi" unicode="&#58989;" d="M823.3097 117.086951 692.231339 117.086951l0 66.00325 131.078361 0L823.3097 117.086951 823.3097 117.086951zM692.231339 315.095677l131.078361 0 0-66.00325L692.231339 249.092427 692.231339 315.095677 692.231339 315.095677zM921.694451-14.918525l-65.590857 0L528.461415-14.918525l-0.051165 0L233.406422-14.918525l-0.051165 0L36.76381-14.918525 36.76381 51.083701l65.565275 0 0 66.00325 0 33.05279L102.329085 645.111926c0 72.912613 58.680471 132.0065 131.077338 132.0065l295.003827 0c72.396867 0 131.077338-59.093886 131.077338-132.0065L659.487587 150.088576l0 0 0-99.05604 196.61703 0L856.104617 315.095677c0 36.508495-29.288047 66.00325-65.48648 66.00325L659.487587 381.098927l0 66.00325 131.130549 0c72.396867 0 131.077338-59.09491 131.077338-132.007523L921.695474 51.083701l65.539692 0 0-66.002226L921.694451-14.918525 921.694451-14.918525zM593.948919 117.086951l0 33.05279L593.948919 645.111926c0 36.456307-29.28907 66.00325-65.538669 66.00325L233.406422 711.115176c-36.249599 0-65.538669-29.546943-65.538669-66.00325L167.867754 117.086951l0 0 0-66.00325 65.538669 0 262.206864 0 32.79594 0 65.538669 0L593.947895 117.086951 593.948919 117.086951zM397.2797 150.088576l0 66.00325 131.130549 0 0-66.00325-32.79594 0L397.2797 150.088576 397.2797 150.088576zM397.2797 414.100552l131.130549 0 0-66.00325L397.2797 348.097302 397.2797 414.100552 397.2797 414.100552zM397.2797 612.110301l131.130549 0 0-66.00325L397.2797 546.107051 397.2797 612.110301 397.2797 612.110301zM233.406422 216.091826 364.484783 216.091826l0-66.00325L233.406422 150.088576 233.406422 216.091826 233.406422 216.091826zM233.406422 414.100552 364.484783 414.100552l0-66.00325L233.406422 348.097302 233.406422 414.100552 233.406422 414.100552zM233.406422 612.110301 364.484783 612.110301l0-66.00325L233.406422 546.107051 233.406422 612.110301 233.406422 612.110301zM233.406422 612.110301"  horiz-adv-x="1024" />

    
    <glyph glyph-name="riliriqi" unicode="&#59399;" d="M480 256l64 0C561.92 256 576 270.08 576 288S561.92 320 544 320l-64 0C462.08 320 448 305.92 448 288S462.08 256 480 256zM480 128l64 0C561.92 128 576 142.08 576 160 576 177.92 561.92 192 544 192l-64 0C462.08 192 448 177.92 448 160 448 142.08 462.08 128 480 128zM832 704l-128 0L704 736C704 753.92 689.92 768 672 768 654.08 768 640 753.92 640 736L640 704 384 704 384 736C384 753.92 369.92 768 352 768S320 753.92 320 736L320 704 192 704C121.6 704 64 646.4 64 576l0-512c0-70.4 57.6-128 128-128l640 0c70.4 0 128 57.6 128 128L960 576C960 646.4 902.4 704 832 704zM896 64c0-35.2-28.8-64-64-64L192 0c-35.2 0-64 28.8-64 64L128 448l768 0L896 64zM896 512 128 512 128 576c0 35.2 28.8 64 64 64l128 0 0-32C320 590.08 334.08 576 352 576S384 590.08 384 608L384 640l256 0 0-32C640 590.08 654.08 576 672 576 689.92 576 704 590.08 704 608L704 640l128 0c35.2 0 64-28.8 64-64L896 512zM288 128l64 0C369.92 128 384 142.08 384 160 384 177.92 369.92 192 352 192l-64 0C270.08 192 256 177.92 256 160 256 142.08 270.08 128 288 128zM672 256l64 0c17.92 0 32 14.08 32 32S753.92 320 736 320l-64 0C654.08 320 640 305.92 640 288S654.08 256 672 256zM288 256l64 0C369.92 256 384 270.08 384 288S369.92 320 352 320l-64 0C270.08 320 256 305.92 256 288S270.08 256 288 256zM672 128l64 0c17.92 0 32 14.08 32 32 0 17.92-14.08 32-32 32l-64 0c-17.92 0-32-14.08-32-32C640 142.08 654.08 128 672 128z"  horiz-adv-x="1024" />

    
    <glyph glyph-name="pinglun-copy" unicode="&#58978;" d="M512.017 18.523c-32.394 0-64.095 2.69-94.805 7.55l-222.31-129.814v216.182c-115.995 78.27-190.331 198.367-190.331 333.314 0 235.888 227.216 427.235 507.447 427.235 280.367 0 507.578-191.349 507.578-427.235 0-235.885-227.212-427.233-507.579-427.233v0zM512.017 811.996c-245.164 0-444.050-164.096-444.050-366.239 0-124.156 75.038-233.729 189.625-299.845l-2.098-141.697 149.372 86.364c34.366-7.008 70.129-11.067 107.151-11.067 245.31 0 444.202 163.83 444.202 366.246 0 202.142-198.891 366.238-444.202 366.238v0zM765.883 384.761c-35.060 0-63.54 27.254-63.54 60.996 0 33.734 28.48 60.997 63.54 60.997 35.056 0 63.398-27.263 63.398-60.997 0.001-33.742-28.341-60.996-63.398-60.996v0zM512.017 384.761c-34.93 0-63.389 27.254-63.389 60.996 0 33.734 28.458 60.997 63.389 60.997 35.071 0 63.539-27.263 63.539-60.997 0.001-33.742-28.467-60.996-63.539-60.996v0zM258.293 384.761c-35.061 0-63.392 27.254-63.392 60.996 0 33.734 28.331 60.997 63.392 60.997 35.066 0 63.539-27.263 63.539-60.997 0-33.742-28.474-60.996-63.539-60.996v0zM258.293 384.761z"  horiz-adv-x="1024" />

    
    <glyph glyph-name="yuding" unicode="&#59157;" d="M921.529187 543.480224C878.16454 653.834588 794.426371 740.689748 685.74409 788.054499c-108.682281 47.357588-229.316779 49.559742-339.671143 6.210445-98.722442-38.794561-178.632423-109.902062-228.293473-202.27182l0 153.383366c0 11.04659-8.952906 19.999496-19.999496 19.999496-11.04659 0-19.999496-8.952906-19.999496-19.999496l0-217.020732c0-11.04659 8.952906-19.999496 19.999496-19.999496l217.028918 0c11.04659 0 19.999496 8.952906 19.999496 19.999496 0 11.04659-8.952906 19.999496-19.999496 19.999496L140.806933 548.355255c43.630706 96.036263 121.485889 170.011068 219.890083 208.68488 100.401688 39.451524 210.177883 37.435611 309.063031-5.655813 98.893334-43.091424 175.085644-122.126478 214.544331-222.528166 39.451524-100.408851 37.443797-210.16151-5.655813-309.055868-43.091424-98.901521-122.126478-175.092807-222.528166-214.544331-100.408851-39.466873-210.169697-37.45096-309.063031 5.64865-72.050989 31.397081-132.869147 82.542948-175.866427 147.899468-6.077416 9.241478-18.491143 11.780301-27.701922 5.718235-9.226129-6.077416-11.788487-18.475793-5.718235-27.701922 47.278793-71.855538 114.119107-128.071887 193.303564-162.585959 56.864102-24.780383 117.001761-37.201274 177.218214-37.201274 54.888098 0 109.838617 10.320043 162.452929 30.990828C781.098831 11.388631 867.953991 95.1268 915.318742 203.817268 962.683493 312.507736 964.894857 433.134047 921.529187 543.480224zM424.708911 168.821219c0.008186 0 0.023536 0 0.031722 0 5.711072 0 11.156084 2.984984 14.944364 7.250124l312.328401 351.929328c7.343245 8.257058 6.593162 20.892843-1.655709 28.228925-8.257058 7.351432-20.905122 6.593162-28.233018-1.664919L424.787706 220.024391 308.081681 352.148571c-7.30436 8.280594-19.952424 9.002025-28.233018 1.682315-8.273431-7.312546-9.0624-20.087501-1.749854-28.368094l131.650389-149.34233C413.538501 171.831786 418.983513 168.821219 424.708911 168.821219z"  horiz-adv-x="1024" />

    
    <glyph glyph-name="bangzhu" unicode="&#58938;" d="M511.997953 830.659853c-246.683309 0-446.650643-199.976544-446.650643-446.663946 0-246.674099 199.967334-446.654736 446.650643-446.654736S958.652689 137.321808 958.652689 383.995907C958.652689 630.683309 758.680239 830.659853 511.997953 830.659853zM511.997953 26.354484c-197.519586 0-357.641423 160.120814-357.641423 357.641423 0 197.528795 160.121837 357.64961 357.641423 357.64961 197.523679 0 357.645516-160.121837 357.645516-357.64961C869.64347 186.476321 709.521632 26.354484 511.997953 26.354484zM519.755638 653.994224c-99.801007 0-158.026106-75.154677-174.646646-177.969321l88.455611 0c12.08627 61.986773 40.828894 92.998067 86.191034 92.998067 43.839461-1.52268 66.520019-16.579607 68.043722-61.933561 1.486864-28.742625-18.925025-58.976206-61.240783-90.729397-45.36214-31.757285-62.36642-96.736205-59.320037-139.057079l0-24.950252 88.459704 0 0 18.143219c-1.527796 31.757285 10.911514 87.633896 45.711088 111.838158 58.972113 40.828894 86.191034 83.926458 81.652671 129.288598C677.000961 593.271234 622.567211 650.947841 519.755638 653.994224zM466.889593 118.182912l89.156576 0 0 88.803535-89.156576 0L466.889593 118.182912z"  horiz-adv-x="1024" />

    
    <glyph glyph-name="qian" unicode="&#58932;" d="M512.483467 71.053196c27.883666 0 50.394238 22.577306 50.394238 50.399294l0 100.655009 101.466938 0c28.087912 0 50.665218 22.577306 50.665218 50.532762 0 27.816932-22.577306 50.527706-50.665218 50.527706L562.877705 323.167966l0 50.532762 101.466938 0c28.087912 0 50.665218 22.510572 50.665218 50.466028 0 27.883666-22.577306 50.460972-50.665218 50.460972l-76.269819 0 69.681359 69.819882c19.691569 19.686513 19.691569 51.671283 0 71.495309-19.686513 19.686513-51.738017 19.686513-71.429586-0.07179l-66.855277-66.922011-66.928078 66.922011c-19.686513 19.758303-51.671283 19.758303-71.429586 0.07179-19.753247-19.824026-19.753247-51.808796 0-71.495309l69.748093-69.819882-89.572118 0c-27.817943 0-50.527706-22.577306-50.527706-50.460972 0-27.955455 22.709763-50.466028 50.527706-50.466028l100.59333 0 0-50.532762-100.59333 0c-27.817943 0-50.527706-22.711785-50.527706-50.527706 0-27.955455 22.709763-50.532762 50.527706-50.532762l100.59333 0 0-100.655009C461.950706 93.630503 484.594746 71.053196 512.483467 71.053196L512.483467 71.053196zM512.483467 71.053196M955.837496 601.291785c-1.814961 4.97269-4.101104 9.540932-7.054587 13.642036-0.404448 0.670373-0.809907 1.409502-1.075832 2.081897l-0.537916-0.201213c-8.802814 10.883699-22.305315 17.805829-37.29113 17.805829-26.879623 0-48.717801-21.634942-48.717801-48.44682 0-12.366002 4.700699-23.655161 12.36398-32.185983 26.879623-54.161673 41.996884-115.107963 41.996884-179.615419 0-223.223017-180.958187-404.115481-404.047736-404.115481-223.088538 0-403.975946 180.82573-403.975946 404.115481 0 223.088538 180.887408 403.981002 403.975946 403.981002 87.219241 0 167.922823-27.61673 233.907526-74.587315 9.073794-12.099066 23.653138-19.89076 39.915998-19.89076 27.549996 0 49.855311 22.378116 49.855311 49.788577 0 14.046484-5.91101 26.612688-15.11726 35.681426L820.034933 769.41481c-0.265925 0.204246-0.671384 0.471182-0.805863 0.670373-2.081897 1.954496-4.300295 3.629922-6.853374 5.244681C727.84199 840.576449 621.674354 879.482338 506.499657 879.482338c-277.045965 0-501.546027-224.566796-501.546027-501.612761 0-276.980242 224.565785-501.546027 501.546027-501.546027s501.546027 224.565785 501.546027 501.546027C1008.180163 458.100966 989.298501 534.031049 955.837496 601.291785L955.837496 601.291785zM955.837496 601.291785"  horiz-adv-x="1024" />

    
    <glyph glyph-name="icon_arrow_left" unicode="&#58916;" d="M272.448 423.936l399.232 399.232c22.080 22.080 57.792 22.080 79.872 0 22.016-22.016 22.080-57.792 0-79.872l-359.296-359.296 359.296-359.296c22.016-22.016 22.080-57.792 0-79.872s-57.792-22.016-79.872 0l-399.232 399.232c-22.016 22.080-22.016 57.792 0 79.872z"  horiz-adv-x="1024" />

    
    <glyph glyph-name="jiantouyou" unicode="&#58917;" d="M751.552 344.064l-399.232-399.232c-22.08-22.08-57.792-22.08-79.872 0-22.016 22.016-22.08 57.792 0 79.872l359.296 359.296-359.296 359.296c-22.016 22.016-22.08 57.792 0 79.872s57.792 22.016 79.872 0l399.232-399.232c22.016-22.08 22.016-57.792 0-79.872z"  horiz-adv-x="1024" />

    
    <glyph glyph-name="fz" unicode="&#58889;" d="M960.279273 383.96897C894.293333 383.96897 850.245818 434.827636 826.33697 473.413818 802.288485 434.858667 758.116848 383.96897 692.565333 383.96897 626.843152 383.96897 582.62497 435.122424 558.62303 473.739636 534.465939 435.153455 490.123636 383.96897 424.851394 383.96897 359.222303 383.96897 315.035152 434.998303 290.986667 473.56897 266.969212 434.998303 222.782061 383.96897 157.137455 383.96897 54.597818 383.96897 0 465.37697 0 524.132848 0 594.556121 122.181818 853.333333 136.114424 882.625939 139.977697 890.740364 148.154182 895.906909 157.137455 895.906909L958.43297 895.906909C967.369697 895.906909 975.515152 890.786909 979.409455 882.750061 993.528242 853.457455 1117.416727 594.602667 1117.416727 524.132848 1117.416727 465.37697 1062.818909 383.96897 960.279273 383.96897ZM139.667394 337.43903C152.529455 337.43903 162.955636 327.028364 162.955636 314.166303L162.955636-81.408 419.033212-81.408 419.033212 102.818909C419.033212 166.958545 471.241697 219.151515 535.427879 219.151515L581.988848 219.151515C646.159515 219.151515 698.383515 166.958545 698.383515 102.818909L698.383515-81.408 954.461091-81.408 954.461091 314.166303C954.461091 327.028364 964.887273 337.43903 977.733818 337.43903 990.595879 337.43903 1001.022061 327.028364 1001.022061 314.166303L1001.022061-127.953455 116.394667-127.953455 116.394667 314.166303C116.394667 327.028364 126.820848 337.43903 139.667394 337.43903ZM651.822545 102.818909C651.822545 141.312 620.497455 172.621576 581.988848 172.621576L535.427879 172.621576C496.919273 172.621576 465.594182 141.312 465.594182 102.818909L465.594182-81.408 651.822545-81.408 651.822545 102.818909Z"  horiz-adv-x="1118" />

    
    <glyph glyph-name="quanbujinduxianxing" unicode="&#58896;" d="M670.612 467.283h-357.012c-14.102 0-25.501-11.424-25.501-25.501 0-14.102 11.399-25.501 25.501-25.501h357.012c14.102 0 25.501 11.399 25.501 25.501 0 14.076-11.399 25.501-25.501 25.501zM670.612 212.274h-357.012c-14.102 0-25.501-11.424-25.501-25.501 0-14.102 11.399-25.501 25.501-25.501h357.012c14.102 0 25.501 11.399 25.501 25.501 0 14.076-11.399 25.501-25.501 25.501zM747.115 722.291h-76.502v51.002h-68.674c-22.109 30.346-62.757 51.002-109.831 51.002-47.074 0-87.723-20.655-109.831-51.002h-68.674v-51.002h-76.502c-56.331 0-102.003-45.672-102.003-102.003v-510.017c0-56.331 45.672-102.003 102.003-102.003h510.017c56.331 0 102.003 45.672 102.003 102.003l-0 510.017c0 56.331-45.672 102.003-102.004 102.003zM364.602 722.291h56.689c0 28.152 31.698 51.002 70.816 51.002 39.119 0 70.816-22.849 70.816-51.002h56.689v-102.003l-255.010-0v102.003zM798.116 110.27c0-28.153-22.848-51.002-51.002-51.002h-510.017c-28.152 0-51.002 22.848-51.002 51.002l-0 510.018c0 28.152 22.849 51.002 51.002 51.002h76.502v-102.003h357.012v102.003h76.502c28.153 0 51.002-22.849 51.002-51.002v-510.018zM670.612 339.778h-357.012c-14.102 0-25.501-11.424-25.501-25.501 0-14.102 11.399-25.501 25.501-25.501h357.012c14.102 0 25.501 11.399 25.501 25.501 0 14.077-11.399 25.501-25.501 25.501z"  horiz-adv-x="1024" />

    
    <glyph glyph-name="shijianhongfa" unicode="&#58951;" d="M810.666667 768l-178.346667 0C614.4 817.493333 567.466667 853.333333 512 853.333333S409.6 817.493333 391.68 768L213.333333 768C166.4 768 128 729.6 128 682.666667l0-597.333333c0-46.933333 38.4-85.333333 85.333333-85.333333l597.333333 0c46.933333 0 85.333333 38.4 85.333333 85.333333L896 682.666667C896 729.6 857.6 768 810.666667 768zM512 768c23.466667 0 42.666667-19.2 42.666667-42.666667s-19.2-42.666667-42.666667-42.666667-42.666667 19.2-42.666667 42.666667S488.533333 768 512 768zM597.333333 170.666667 298.666667 170.666667l0 85.333333 298.666667 0L597.333333 170.666667zM725.333333 341.333333 298.666667 341.333333l0 85.333333 426.666667 0L725.333333 341.333333zM725.333333 512 298.666667 512 298.666667 597.333333l426.666667 0L725.333333 512z"  horiz-adv-x="1024" />

    
    <glyph glyph-name="sousuo" unicode="&#58922;" d="M936.444898 9.651057 773.85894 172.237015c62.556755 72.204485 96.698343 163.441443 96.698343 259.928984 0 106.210997-41.361013 206.064192-116.463502 281.167704-75.102489 75.101465-174.956707 116.462478-281.168728 116.462478-106.210997 0-206.064192-41.361013-281.165658-116.463502C116.656907 638.230192 75.296917 538.375973 75.296917 432.165999s41.361013-206.064192 116.463502-281.167704c75.101465-75.102489 174.955684-116.463502 281.165658-116.463502 87.748507 0 171.141822 28.255531 239.839437 80.420611l164.492378-164.492378c8.172123-8.172123 18.883069-12.259208 29.594015-12.259208s21.421892 4.087085 29.594015 12.259208C952.789145-33.191704 952.789145-6.69319 936.444898 9.651057zM159.000294 432.165999c0 173.099407 140.826376 313.925782 313.924759 313.925782 173.099407 0 313.926806-140.826376 313.926806-313.925782s-140.827399-313.924759-313.926806-313.924759C299.82667 118.240217 159.000294 259.066593 159.000294 432.165999z"  horiz-adv-x="1024" />

    
    <glyph glyph-name="jituanxinwen" unicode="&#58946;" d="M180.957887-6.760728l-46.147016 0c-12.347213 0-10.136871-2.236947-10.136871 10.135848L124.673999 655.673469c0 12.369725-2.211365 10.136871 10.136871 10.136871l0 57.115835c-37.084617 0-67.254753-30.16502-67.254753-67.231217l0-652.29835c0-37.09178 30.169113-67.229171 67.254753-67.229171l753.35086 0.155543c37.089733 0 67.254753 30.169113 67.254753 67.229171L955.416484 765.600091c-0.021489 37.08564-30.191626 67.229171-67.254753 67.229171l0 0.005117L248.116449 832.834378c-37.084617 0-67.249637-30.16502-67.249637-67.232241l0-762.070452M898.299625 3.541919c0-12.372795 2.210341-10.136871-10.136871-10.136871L248.116449-6.594953c-12.362562 0-10.136871-2.235924-10.136871 10.136871L237.979578 765.605208c0 12.371772-2.206248 10.137895 10.136871 10.137895l640.045281 0c12.352329 0 10.136871 2.233877 10.136871-10.137895L898.298602 3.541919zM790.26305 288.129512 346.02127 288.129512c-8.506744 0-15.427364-9.617032-15.427364-21.404496l0-12.304234c0-11.827373 6.92062-21.403472 15.427364-21.403472l444.264293 0c8.506744 0 15.428388 9.605775 15.428388 21.403472L805.71395 266.725016C805.691437 278.52476 798.765701 288.129512 790.26305 288.129512L790.26305 288.129512zM790.26305 173.325813 346.02127 173.325813c-8.506744 0-15.427364-9.608845-15.427364-21.408589l0-12.296047c0-11.82942 6.92062-21.409612 15.427364-21.409612l444.264293 0c8.506744 0 15.428388 9.607822 15.428388 21.409612l0 12.296047C805.691437 163.716968 798.765701 173.325813 790.26305 173.325813L790.26305 173.325813zM376.600729 347.505831l181.966355 0c25.361621 0 45.984311 20.626783 45.984311 45.986357L604.551394 577.431477c0 25.361621-20.62576 45.986357-45.984311 45.986357L376.600729 623.417835c-25.361621 0-45.983287-20.626783-45.983287-45.986357l0-183.939289C330.618465 368.132614 351.239108 347.505831 376.600729 347.505831zM385.810484 568.224792l163.546843 0-0.067538-165.520801L385.810484 402.703991M655.161049 567.559643l130.59536 0c10.969842 0 19.909445 12.412704 19.909445 27.556613 0 15.144932-8.967232 27.556613-19.909445 27.556613L655.161049 622.672868c-10.970866 0-19.915585-12.411681-19.915585-27.556613C635.245464 579.972347 644.210649 567.559643 655.161049 567.559643zM655.161049 452.64031l130.59536 0c10.969842 0 19.909445 12.412704 19.909445 27.556613 0 15.149025-8.967232 27.556613-19.909445 27.556613L655.161049 507.753535c-10.970866 0-19.915585-12.407588-19.915585-27.556613C635.245464 465.053014 644.210649 452.64031 655.161049 452.64031zM655.161049 341.816249l130.59536 0c10.969842 0 19.909445 12.418844 19.909445 27.554566 0 15.151072-8.967232 27.558659-19.909445 27.558659L655.161049 396.929474c-10.970866 0-19.915585-12.407588-19.915585-27.558659C635.245464 354.235093 644.210649 341.816249 655.161049 341.816249z"  horiz-adv-x="1024" />

    
    <glyph glyph-name="icon122" unicode="&#58999;" d="M370.719276 431.081295l-188.370205 0c-51.928696 0-94.186126 42.22366-94.186126 94.191242l0 188.370205c0 51.928696 42.256406 94.186126 94.186126 94.186126l188.370205 0c51.951209 0 94.190219-42.256406 94.190219-94.186126l0-188.370205C464.909495 473.304955 422.670485 431.081295 370.719276 431.081295L370.719276 431.081295 370.719276 431.081295zM417.811828 713.642742c0 25.964348-21.128203 47.092551-47.092551 47.092551l-188.370205 0c-25.948999 0-47.092551-21.128203-47.092551-47.092551l0-188.370205c0-25.986861 21.143553-47.092551 47.092551-47.092551l188.370205 0c25.964348 0 47.092551 21.106714 47.092551 47.092551L417.811828 713.642742 417.811828 713.642742 417.811828 713.642742zM370.719276-39.828868l-188.370205 0c-51.928696 0-94.186126 42.207287-94.186126 94.169753l0 188.370205c0 51.928696 42.256406 94.184079 94.186126 94.184079l188.370205 0c51.951209 0 94.190219-42.255383 94.190219-94.184079l0-188.370205C464.909495 2.373303 422.670485-39.828868 370.719276-39.828868L370.719276-39.828868 370.719276-39.828868zM417.811828 242.71109c0 25.964348-21.128203 47.092551-47.092551 47.092551l-188.370205 0c-25.948999 0-47.092551-21.128203-47.092551-47.092551l0-188.370205c0-25.980721 21.143553-47.092551 47.092551-47.092551l188.370205 0c25.964348 0 47.092551 21.11183 47.092551 47.092551L417.811828 242.71109 417.811828 242.71109 417.811828 242.71109zM912.326595 124.839519c-13.015432 0-23.583115 10.491958-23.583115 23.508413l0 94.362134c0 25.964348-21.128203 47.092551-47.092551 47.092551l-188.370205 0c-25.948999 0-47.092551-21.128203-47.092551-47.092551l0-188.370205c0-25.980721 21.143553-47.092551 47.092551-47.092551l94.361111 0c12.994965 0 23.547299-10.583033 23.547299-23.584138 0-12.964266-10.55131-23.49204-23.547299-23.49204l-94.361111 0c-51.928696 0-94.186126 42.207287-94.186126 94.169753l0 188.370205c0 51.928696 42.256406 94.184079 94.186126 94.184079l188.370205 0c51.945069 0 94.186126-42.255383 94.186126-94.184079l0-94.362134C935.837054 135.331477 925.290861 124.839519 912.326595 124.839519L912.326595 124.839519 912.326595 124.839519zM841.650929 431.081295l-188.370205 0c-51.928696 0-94.186126 42.22366-94.186126 94.191242l0 188.370205c0 51.928696 42.256406 94.186126 94.186126 94.186126l188.370205 0c51.945069 0 94.186126-42.256406 94.186126-94.186126l0-188.370205C935.837054 473.304955 893.597021 431.081295 841.650929 431.081295L841.650929 431.081295 841.650929 431.081295zM888.744503 713.642742c0 25.964348-21.128203 47.092551-47.092551 47.092551l-188.370205 0c-25.948999 0-47.092551-21.128203-47.092551-47.092551l0-188.370205c0-25.986861 21.143553-47.092551 47.092551-47.092551l188.370205 0c25.964348 0 47.092551 21.106714 47.092551 47.092551L888.744503 713.642742 888.744503 713.642742 888.744503 713.642742zM888.744503 713.642742"  horiz-adv-x="1024" />

    
    <glyph glyph-name="qian3" unicode="&#58883;" d="M761.111 721.144h-93.468L562.549 527.502c-28.028-52.478-45.17-87.36-51.43-104.648h-1.789c-18.489 42.038-70.66 141.465-156.524 298.29h-98.834l183.804-315.732h-150.71v-69.764h176.648v-96.152H287.065v-70.659h176.649v-139.978h87.652V168.837h170.388v70.66H551.367v96.151h170.388v69.764H575.518l185.593 315.732z"  horiz-adv-x="1024" />

    
    <glyph glyph-name="jituanxinwen1" unicode="&#58986;" d="M221.045 40.558h-40.559c-10.852 0-8.909-1.966-8.909 8.908v573.308c0 10.872-1.943 8.909 8.909 8.909v50.199c-32.594 0-59.111-26.512-59.111-59.090v-573.308c0-32.601 26.515-59.088 59.111-59.088l662.125 0.137c32.599 0 59.111 26.515 59.111 59.088v669.769c-0.019 32.595-26.536 59.088-59.111 59.088v0.005h-562.539c-32.594 0-59.107-26.512-59.107-59.091v-669.788M851.521 49.613c0-10.875 1.942-8.909-8.909-8.909h-562.54c-10.866 0-8.909-1.965-8.909 8.909v669.782c0 10.874-1.939 8.91 8.909 8.91h562.539c10.856 0 8.909 1.963 8.909-8.91v-669.782zM756.568 299.739h-390.447c-7.477 0-13.559-8.453-13.559-18.812v-10.814c0-10.395 6.083-18.811 13.559-18.811h390.467c7.477 0 13.56 8.443 13.56 18.811v10.814c-0.021 10.372-6.107 18.812-13.58 18.812v0zM756.568 198.837h-390.447c-7.477 0-13.559-8.445-13.559-18.817v-10.808c0-10.397 6.083-18.817 13.559-18.817h390.467c7.477 0 13.56 8.445 13.56 18.817v10.808c-0.021 10.372-6.107 18.817-13.58 18.817v0zM392.997 351.925h159.931c22.291 0 40.416 18.129 40.416 40.418v161.665c0 22.291-18.128 40.417-40.416 40.417h-159.931c-22.291 0-40.415-18.129-40.415-40.417v-161.665c0.001-22.289 18.125-40.418 40.415-40.418zM401.091 545.917h143.742l-0.060-145.477h-143.683M637.825 545.332h114.781c9.641 0 17.498 10.91 17.498 24.22s-7.882 24.22-17.498 24.22h-114.781c-9.642 0-17.504-10.909-17.504-24.22 0-13.31 7.88-24.22 17.504-24.22zM637.825 444.328h114.781c9.641 0 17.498 10.91 17.498 24.22 0 13.314-7.882 24.22-17.498 24.22h-114.781c-9.642 0-17.504-10.906-17.504-24.22 0-13.31 7.88-24.22 17.504-24.22zM637.825 346.925h114.781c9.641 0 17.498 10.915 17.498 24.218 0 13.316-7.882 24.222-17.498 24.222h-114.781c-9.642 0-17.504-10.905-17.504-24.222 0-13.303 7.88-24.218 17.504-24.218z"  horiz-adv-x="1024" />

    
    <glyph glyph-name="tongjifenxi" unicode="&#58881;" d="M1150.067 896h-1098.792c-27.544 0-51.274-23.73-51.274-51.274v-728.644c0-27.544 23.73-51.274 51.274-51.274h504.055v-122.041h-157.636c-19.705 0-35.383-15.679-35.383-35.383 0-19.705 15.679-35.383 35.383-35.383h386.039c19.705 0 35.383 15.679 35.383 35.383 0 19.705-15.679 35.383-35.383 35.383h-157.636l0 122.253h523.759c27.544 0 51.274 23.73 51.274 51.274l-0 728.432c0 27.544-23.518 51.274-51.062 51.274zM1130.362 135.786h-1059.383l-0 689.235h1059.383l0-689.235zM208.699 387.92l204.885 165.476 271.838-267.812 303.196 319.086c11.865 15.679 11.865 35.383 0 51.274-15.679 11.865-35.383 11.865-51.274 0l-252.133-267.812-263.786 263.575-255.947-204.673c-15.679-11.865-19.705-35.383-4.026-51.274 7.839-19.705 31.57-19.705 47.249-7.839z"  horiz-adv-x="1202" />

    
    <glyph glyph-name="xinfeng" unicode="&#58882;" d="M871.109 672.398H149.738c-28.867 0-52.351-23.485-52.351-52.351v-469.449c0-28.867 23.485-52.351 52.351-52.351h4.873c6.354-0.6 13.93-0.891 23.155-0.891 7.036 0 13.97 0.16 20.675 0.314l0.302 0.007c5.61 0.132 10.91 0.258 15.34 0.258h607.663c0.495-0.005 2.895-0.106 3.923-0.149 4.91-0.204 13.125-0.546 21.948-0.549h0.007c9.075 0 16.54 0.33 22.816 1.012h0.666c28.869 0 52.356 23.485 52.356 52.352V620.048c-0.003 28.867-23.489 52.353-52.355 52.353z m12.612-60.686v-451.94L628.184 383.894l255.537 227.819zM521.29 341.839l-0.757-0.717a12.423 12.423 0 0 0-7.643-3.591c-0.432-0.042-0.86-0.064-1.272-0.064-3.392 0-6.56 1.299-8.918 3.653l-0.46 0.46-331.481 290.711c0.188-0.005 0.378-0.007 0.571-0.013 4.273-0.107 8.19-0.29 10.784-0.411l0.116-0.006c2.522-0.117 4.188-0.192 5.487-0.192h640.435c5.709 0 11.727 0.179 17.547 0.353l1.118 0.033-325.528-290.216z m-102.435 20.01l56.258-49.34a52.46 52.46 0 0 1 7.889-6.318c7.666-5.016 16.605-7.916 25.862-8.391 0.997-0.051 1.895-0.075 2.75-0.075 12.868 0 25.21 4.673 34.766 13.166 0.278 0.248 0.551 0.508 0.824 0.766l0.549 0.517c0.14 0.13 0.28 0.261 0.419 0.393l50.121 44.682L848.31 137.981H170.254l248.603 223.866z m-30.087 26.387L137.127 161.635V608.928l251.641-220.69z"  horiz-adv-x="1027" />

    
    <glyph glyph-name="tubiao-zhuzhuangtu" unicode="&#59182;" d="M128 768h64v-768h-64zM320.08 384h64v-256h-64zM576.08 448h64v-320h-64zM704.08 640h64v-512h-64zM448.08 511.12h64V128h-64zM127.84 0v64h768v-64z"  horiz-adv-x="1024" />

    
    <glyph glyph-name="jingyingtongjipx" unicode="&#58909;" d="M848.5 6.1h-673C114 6.1 64 56.1 64 117.6V650.4c0 61.5 50 111.5 111.5 111.5h673c61.5 0 111.5-50 111.5-111.5v-532.8c0-61.5-50-111.5-111.5-111.5z m-673 701.1c-31.3 0-56.8-25.5-56.8-56.8v-532.8c0-31.3 25.5-56.8 56.8-56.8h673c31.3 0 56.8 25.5 56.8 56.8V650.4c0 31.3-25.5 56.8-56.8 56.8h-673zM203.6 276.7h-7.9c-26.5 0-48.1 21.6-48.1 48.1v7.9c0 26.5 21.6 48.1 48.1 48.1h7.9c26.5 0 48.1-21.6 48.1-48.1v-7.9c0-26.5-21.6-48.1-48.1-48.1z m-7.9 78.9c-12.6 0-22.9-10.3-22.9-22.9v-7.9c0-12.6 10.3-22.9 22.9-22.9h7.9c12.6 0 22.9 10.3 22.9 22.9v7.9c0 12.6-10.3 22.9-22.9 22.9h-7.9zM433.2 391.5h-7.9c-26.5 0-48.1 21.6-48.1 48.1v7.9c0 26.5 21.6 48.1 48.1 48.1h7.9c26.5 0 48.1-21.6 48.1-48.1v-7.9c0-26.6-21.6-48.1-48.1-48.1z m-7.9 78.8c-12.6 0-22.9-10.3-22.9-22.9v-7.9c0-12.6 10.3-22.9 22.9-22.9h7.9c12.6 0 22.9 10.3 22.9 22.9v7.9c0 12.6-10.3 22.9-22.9 22.9h-7.9zM828.3 441.6h-7.9c-26.5 0-48.1 21.6-48.1 48.1v7.9c0 26.5 21.6 48.1 48.1 48.1h7.9c26.5 0 48.1-21.6 48.1-48.1v-7.9c0-26.5-21.6-48.1-48.1-48.1z m-7.9 78.9c-12.6 0-22.9-10.3-22.9-22.9v-7.9c0-12.6 10.3-22.9 22.9-22.9h7.9c12.6 0 22.9 10.3 22.9 22.9v7.9c0 12.6-10.3 22.9-22.9 22.9h-7.9zM656.7 222.3h-7.9c-26.5 0-48.1 21.6-48.1 48.1v7.9c0 26.5 21.6 48.1 48.1 48.1h7.9c26.5 0 48.1-21.6 48.1-48.1v-7.9c0-26.6-21.6-48.1-48.1-48.1z m-7.9 78.8c-12.6 0-22.9-10.3-22.9-22.9v-7.9c0-12.6 10.3-22.9 22.9-22.9h7.9c12.6 0 22.9 10.3 22.9 22.9v7.9c0 12.6-10.3 22.9-22.9 22.9h-7.9zM239.1 327.8c-4.4 0-8.7 2.3-11.1 6.5-3.4 6.1-1.2 13.8 4.9 17.2l154.6 86.1c6.1 3.3 13.8 1.2 17.2-4.9 3.4-6.1 1.2-13.8-4.9-17.2l-154.6-86.1c-1.9-1.1-4-1.6-6.1-1.6zM681.5 288.5c-2.7 0-5.4 0.9-7.7 2.6-5.5 4.3-6.5 12.2-2.3 17.7l122.8 158.7c4.3 5.5 12.2 6.5 17.7 2.3 5.5-4.3 6.5-12.2 2.3-17.7L691.5 293.4c-2.5-3.2-6.2-4.9-10-4.9zM619.7 283.1c-2.7 0-5.3 0.8-7.6 2.5L451.4 407.8c-5.5 4.2-6.6 12.1-2.4 17.7 4.2 5.6 12.1 6.7 17.7 2.4l160.6-122.1c5.5-4.2 6.6-12.2 2.4-17.7-2.5-3.3-6.3-5-10-5z"  horiz-adv-x="1024" />

    
    <glyph glyph-name="wenjian" unicode="&#59425;" d="M866.987 636.587c0 6.827 0 6.827 0 0v13.653l-163.84 143.36c-6.827 6.827-13.653 6.827-20.48 6.827h-471.040c-34.133 6.827-54.613-6.827-54.613-40.96v-750.933c0-34.133 13.653-47.787 47.787-47.787h607.573c34.133 0 47.787 13.653 47.787 47.787l6.827 628.053zM716.8 165.547h-409.6c-13.653 0-27.307 13.653-27.307 27.307s13.653 27.307 27.307 27.307h409.6c13.653 0 27.307-13.653 27.307-27.307 0-20.48-13.653-27.307-27.307-27.307zM716.8 308.907h-409.6c-13.653 0-27.307 13.653-27.307 27.307s13.653 27.307 27.307 27.307h409.6c13.653 0 27.307-13.653 27.307-27.307s-13.653-27.307-27.307-27.307zM716.8 465.92h-409.6c-13.653 0-27.307 13.653-27.307 27.307s13.653 27.307 27.307 27.307h409.6c13.653 0 27.307-13.653 27.307-27.307s-13.653-27.307-27.307-27.307zM703.147 663.893v61.44l61.44-54.613h-61.44v-6.827z"  horiz-adv-x="1024" />

    
    <glyph glyph-name="icon_wenjian" unicode="&#58957;" d="M685.7 439.6H424.1c-16.1 0-29.1-12.5-29.1-28 0-15.4 13-28 29.1-28h261.6c16.1 0 29.1 12.5 29.1 28s-13.1 28-29.1 28zM882 615.1L693.8 822c-5.2 5.7-12.3 8.9-20 9-61.2 0.1-336.9 0.8-336.9 0.8-61.5 0-115.9-47.6-115.9-105.2l-0.4-6.7-33.6-0.8c-61.5 0-111.8-53.6-111.8-111.2v-559.6c0-57.6 54.8-111.9 116.3-111.9h436c61.5 0 116.3 47.1 116.3 104.7v7.5l29.1-0.3c61.5 0 116.3 54.3 116.3 111.9V596.7c0 6.8-2.6 13.4-7.2 18.4zM685.7 775L831 607.3h-87.2c-31 0-58.1 54.8-58.1 83.8V775z m0.2-731.3c0-28.5-27.9-64.9-58.4-64.9h-436c-30.5 0-72.2 41-72.2 69.5V607.9c0 28.5 38.9 68.6 69.4 68.6l31.8 0.9v-517.2c0-57.6 54.8-111.9 116.3-111.9l349.1 0.3v-4.9z m159.2 116.6c0-28.5-41.7-69.5-72.2-69.5H322.8c-30.5 0-58.1 41-58.1 69.5V719.9c0 28.5 27.6 69.5 58.1 69.5h318.8c-0.5-64.5 0-126.2 0-126.2 0-58.1 40.3-97.6 102.2-97.6H845v-405.3zM685.7 299.8H424.1c-16.1 0-29.1-12.5-29.1-28 0-15.4 13-27.9 29.1-27.9h261.6c16.1 0 29.1 12.5 29.1 27.9 0 15.5-13.1 28-29.1 28z"  horiz-adv-x="1024" />

    
    <glyph glyph-name="icon-shuchu" unicode="&#58943;" d="M1092.266667 349.866667l-221.457067-205.550934L819.2 145.066667l-0.750933 51.6096L971.639467 349.866667H341.333333V418.133333h630.306134l-153.1904 153.1904L819.2 622.933333l51.6096 0.750934L1092.266667 418.133333v-68.266666z m-374.5792 336.349866a32.768 32.768 0 0 0-32.3584 33.109334v43.6224A65.672533 65.672533 0 0 1 620.544 829.371733H479.368533c-0.887467-0.068267-1.6384-0.546133-2.525866-0.546133H128.955733a61.917867 61.917867 0 0 1-24.917333-5.188267c-2.389333-1.024-4.164267-3.003733-6.3488-4.369066-4.778667-2.798933-9.693867-5.5296-13.585067-9.489067a66.9696 66.9696 0 0 1-18.909866-46.830933v-757.3504a65.536 65.536 0 0 1 64.785066-66.423467h351.163734c0.887467 0 1.6384-0.477867 2.525866-0.546133h131.4816c35.498667 0 64.238933 29.764267 64.238934 66.423466v43.6224a32.768 32.768 0 0 0 32.1536 33.109334 32.768 32.768 0 0 0 32.1536-33.109334v-50.244266c0-69.768533-54.6816-126.293333-122.129067-126.293334h-499.029333c-67.447467 0-122.129067 56.5248-122.129067 126.293334V769.024v0.546133C0.4096 839.338667 55.5008 895.863467 123.4944 895.863467h503.534933c67.9936 0 123.0848-56.5248 123.0848-126.293334v-50.244266a32.904533 32.904533 0 0 0-32.426666-33.109334z"  horiz-adv-x="1092" />

    
    <glyph glyph-name="qushi" unicode="&#58884;" d="M49.55 153.162h172.726v-217.606H49.549V153.162z m263.405 223.105h177.04V-64.44h-177.04V376.267z m263.412-84.92h175.605v-355.79H576.367v355.79zM839.77 507.252h177.05V-64.44H839.77V507.253zM2.048 369.07l410.227 377.123 235.428-231.287 222.3 258.638-80.605 84.797h227.428V638.24l-79.518 81.936-289.612-350.534-237.928 244.616L59.13 287.828 2.048 369.07z"  horiz-adv-x="1024" />

    
    <glyph glyph-name="fenpei" unicode="&#59125;" d="M943.584506 211.465458h-77.915558V359.478514h-334.825788V471.107917h108.25761c7.894807 0 14.427594 6.54609 14.427594 14.472619l-1.178849 264.187985c0 7.934716-6.532787 14.46341-14.427594 14.46341H373.85878c-7.894807 0-14.423501-6.528694-14.423501-14.46341l-1.182942-264.187985c0-7.925507 6.532787-14.47262 14.427594-14.472619h121.694643v-111.629403H158.0302v-148.013056H79.555917c-8.046257 0-14.6957-6.009877-14.6957-13.29377v-180.208315c0-7.286963 6.64842-13.293771 14.6957-13.293771h193.546088c8.042163 0 14.6957 6.005784 14.6957 13.293771V198.171688c0 7.28287-6.653537 13.293771-14.6957 13.29377h-78.474283V326.247668H494.373551v-114.78221h-78.469166c-8.03807 0-14.690584-6.009877-14.690584-13.29377v-180.208315c0-7.286963 6.653537-13.293771 14.690584-13.293771h193.269795c8.042163 0 14.6957 6.005784 14.6957 13.293771V198.171688c0 7.28287-6.653537 13.293771-14.6957 13.29377h-78.192873V326.247668H829.066309v-114.78221h-77.920674c-8.03807 0-14.6957-6.009877-14.6957-13.29377v-180.208315c0-7.286963 6.65763-13.293771 14.6957-13.293771H943.584506c8.042163 0 14.6957 6.005784 14.6957 13.293771V198.171688c-0.001023 7.283894-6.653537 13.293771-14.6957 13.29377z"  horiz-adv-x="1024" />

    
    <glyph glyph-name="bianji" unicode="&#58886;" d="M981.728 705.312l-44.832-44.56-149.424 148.512 44.832 44.528c16.48 16.432 42.416 17.264 57.888 1.84l93.408-92.768c15.472-15.392 14.608-41.152-1.872-57.552zM585.36 311.488l-149.408 148.464L764.72 786.592l149.424-148.464-328.784-326.64z m-20.8-20.704l-209.184-59.408 59.76 207.872 149.424-148.464zM219.472 748.832a93.44 93.44 0 0 1-93.456-93.44v-563.904a93.44 93.44 0 0 1 93.456-93.456H783.52a93.456 93.456 0 0 1 93.488 93.456V462.096l96.64 93.44v-498.448c0-86.016-72.912-155.744-158.976-155.744H185.12c-86.048 0-155.776 69.728-155.776 155.744V680.144c0 86.016 69.728 165.36 155.776 165.36h498.528l-93.504-96.688H219.472v0.016z"  horiz-adv-x="1024" />

    
    <glyph glyph-name="baocun" unicode="&#59539;" d="M960.4 831.1H65.3V-64h895.1V831.1zM256 574.2h513.8V767.1h126.6V0H769.8V449.9H256V0H129.3V767.1H256v-192.9z m64 64V767.1h385.8v-128.9H320z m0-638.1V385.9h385.8v-385.8H320zM638 289H386.5v-64H638v64zM638 161H386.5v-64H638v64z"  horiz-adv-x="1024" />

    
    <glyph glyph-name="zuanshi" unicode="&#58935;" d="M747.818667 732.266667l-240.490667-699.733334a21.333333 21.333333 0 1 1 40.341333-13.866666l240.512 699.733333a21.333333 21.333333 0 1 1-40.362666 13.866667zM751.146667 712.234667l149.333333-192a21.333333 21.333333 0 1 1 33.706667 26.197333l-149.333334 192a21.333333 21.333333 0 1 1-33.706666-26.197333zM512 512h405.333333a21.333333 21.333333 0 0 1 0 42.666667H512a21.333333 21.333333 0 0 1 0-42.666667zM900.352 546.24l-405.333333-533.333333a21.333333 21.333333 0 0 1 33.962666-25.813334l405.333334 533.333334a21.333333 21.333333 0 0 1-33.962667 25.813333zM512 704h256a21.333333 21.333333 0 0 1 0 42.666667H512a21.333333 21.333333 0 0 1 0-42.666667zM496.917333 710.250667l181.333334-181.333334a21.333333 21.333333 0 0 1 30.165333 30.165334l-181.333333 181.333333a21.333333 21.333333 0 0 1-30.165334-30.165333zM235.818667 718.4l240.512-699.733333a21.333333 21.333333 0 1 1 40.341333 13.866666l-240.490667 699.733334a21.333333 21.333333 0 1 1-40.362666-13.866667zM239.146667 738.432l-149.333334-192a21.333333 21.333333 0 1 1 33.706667-26.197333l149.333333 192a21.333333 21.333333 0 1 1-33.706666 26.197333zM512 554.666667H106.666667a21.333333 21.333333 0 0 1 0-42.666667h405.333333a21.333333 21.333333 0 0 1 0 42.666667zM89.685333 520.426667l405.333334-533.333334a21.333333 21.333333 0 0 1 33.962666 25.813334l-405.333333 533.333333a21.333333 21.333333 0 1 1-33.962667-25.813333zM512 746.666667H256a21.333333 21.333333 0 0 1 0-42.666667h256a21.333333 21.333333 0 0 1 0 42.666667zM496.917333 740.416l-181.333333-181.333333a21.333333 21.333333 0 0 1 30.165333-30.165334l181.333334 181.333334a21.333333 21.333333 0 1 1-30.165334 30.165333z"  horiz-adv-x="1024" />

    
    <glyph glyph-name="renminbi1" unicode="&#58893;" d="M754.474014 716.119778L576.427989 413.215788h140.292951v-66.923859h-163.460025v-92.230425h163.460025v-67.77406h-163.460025v-134.28924h-84.088439V186.287444H299.707525v67.77406h169.464951v92.230425H299.707525v66.923859h144.598691L267.959377 716.119778h94.807787c82.388036-150.455228 132.413688-245.849277 150.162098-286.179715h1.728377c6.004927 16.577102 22.465263 50.054843 49.351816 100.401602l100.811498 185.778113h89.653061z"  horiz-adv-x="1024" />

    
    <glyph glyph-name="shoujihao" unicode="&#58899;" d="M779.677-75.477h-518.837c-14.546 0-26.379 11.777-26.379 26.25v160.302h571.595v-160.302c-0.001-14.475-11.833-26.25-26.379-26.25v0zM260.84 843.486h518.838c14.546 0 26.378-11.773 26.378-26.263v-649.15h-571.595v649.15c0 14.49 11.833 26.263 26.379 26.263v0zM779.677 896h-518.837c-43.651 0-79.163-35.338-79.163-78.776v-866.451c0-43.448 35.512-78.773 79.163-78.773h518.838c43.637 0 79.16 35.325 79.16 78.773v866.45c0 43.438-35.525 78.777-79.162 78.777v0zM520.259 74.701c-28.919 0-52.432-23.401-52.432-52.176 0-28.777 23.513-52.176 52.432-52.176 28.916 0 52.432 23.398 52.432 52.176 0 28.773-23.516 52.176-52.432 52.176v0z"  horiz-adv-x="1024" />

    
    <glyph glyph-name="augmented-reality" unicode="&#59061;" d="M1012.093023 384c0-127.428465-103.34462-230.804837-230.820713-230.804837H242.719752C115.251597 153.195163 11.906977 256.571535 11.906977 384c0 127.507845 103.34462 230.804837 230.812775 230.804837h538.552558c127.476093 0 230.820713-103.30493 230.820713-230.804837zM781.27231 614.804837H242.719752C115.251597 614.804837 11.906977 511.499907 11.906977 384h1000.186046c0 127.499907-103.34462 230.804837-230.820713 230.804837zM781.27231 141.288186H242.719752C108.885333 141.288186 0 250.165581 0 384s108.885333 242.711814 242.719752 242.711814h538.552558C915.114667 626.711814 1024 517.834419 1024 384s-108.885333-242.711814-242.72769-242.711814zM242.719752 602.89786C122.01476 602.89786 23.813953 504.704992 23.813953 384s98.200806-218.89786 218.905799-218.89786h538.552558C901.977302 165.10214 1000.186047 263.295008 1000.186047 384s-98.208744 218.89786-218.913737 218.89786H242.719752zM346.929612 443.661891c55.168992-55.224558 55.168992-144.62214 0-199.814945-55.145178-55.161054-144.58245-55.161054-199.743503 0-55.161054 55.192806-55.153116 144.590388 0 199.814945 55.161054 55.145178 144.598326 55.145178 199.743503 0zM247.061829 391.779225m-141.240558 0a141.240558 141.240558 0 1 1 282.481117 0 141.240558 141.240558 0 1 1-282.481117 0ZM147.186109 291.903504c-55.161054 55.161054-55.153116 144.606264 0 199.751442 55.161054 55.161054 144.598326 55.161054 199.743503 0M247.069767 238.703132c-39.221581 0-78.435225 14.923411-108.297922 44.786108a152.155287 152.155287 0 0 0-44.85755 108.305861c0 40.904434 15.931535 79.371907 44.85755 108.289984a152.115597 152.115597 0 0 0 108.297922 44.857551c40.912372 0 79.371907-15.931535 108.289985-44.857551a152.107659 152.107659 0 0 0 44.865488-108.289984c0-40.912372-15.931535-79.379845-44.865488-108.305861a152.69507 152.69507 0 0 0-108.289985-44.786108z m-0.007938 282.417612a128.492155 128.492155 0 0 1-91.453519-37.880062c-24.425178-24.425178-37.880062-56.899473-37.880062-91.453519s13.446946-67.028341 37.880062-91.461458c50.437953-50.422078 132.484961-50.41414 182.907039 0a128.500093 128.500093 0 0 1 37.888 91.461458c0 34.546109-13.454884 67.020403-37.888 91.445581a128.420713 128.420713 0 0 1-91.45352 37.888zM648.763535 469.380961H547.974946a11.906977 11.906977 0 0 1-11.906977-11.906977v-146.947968a11.906977 11.906977 0 1 1 23.813953 0v61.582883h76.974636v-61.582883a11.906977 11.906977 0 1 1 23.813954 0V457.473984a11.906977 11.906977 0 0 1-11.906977 11.906977z m-88.881613-73.458108v49.644155h76.974636v-49.644155h-76.974636zM823.994543 384.015876v73.458108a11.906977 11.906977 0 0 1-11.906977 11.906977H711.298977a11.906977 11.906977 0 0 1-11.906977-11.906977v-146.947968a11.906977 11.906977 0 1 1 23.813953 0v61.582883h32.029768l47.048434-68.33017a11.883163 11.883163 0 0 1 16.558636-3.048186 11.906977 11.906977 0 0 1 3.056124 16.558635l-37.753055 54.827659h27.941706c6.580589-0.007938 11.906977 5.31845 11.906977 11.899039z m-100.78859 61.551132h76.974636v-49.644155h-76.974636v49.644155z"  horiz-adv-x="1024" />

    
    <glyph glyph-name="shangxiajiantou" unicode="&#58890;" d="M511.936 274.496l-278.4 279.68 45.376 45.12 232.704-233.792 231.616 236.032 45.632-44.8z"  horiz-adv-x="1024" />

    
    <glyph glyph-name="shangxiajiantou1" unicode="&#58891;" d="M512.064 607.28l278.4-279.68-45.376-45.12-232.704 233.791-231.616-236.032-45.632 44.8z"  horiz-adv-x="1024" />

    
    <glyph glyph-name="mima" unicode="&#58970;" d="M747.776 498.368V692.2239999999999A139.84 139.84 0 0 1 607.936 832H418.112a139.776 139.776 0 0 1-139.776-139.776V498.56A127.616 127.616 0 0 1 160 371.52V64a128 128 0 0 1 128-128h448a128 128 0 0 1 128 128V371.52c0 66.752-51.2 120.832-116.224 126.848z m-175.68-321.344v-92.48a34.88 34.88 0 0 0-34.88-35.008h-46.4a34.944 34.944 0 0 0-34.944 35.008v92.48A112.896 112.896 0 0 0 398.72 274.55999999999995c0 62.656 51.648 113.536 115.264 113.536s115.264-50.816 115.264-113.536a112.448 112.448 0 0 0-57.152-97.536z m57.216 322.496H398.72V652.672c0 38.592 31.296 69.888 69.888 69.888h90.816c38.592 0 69.888-31.296 69.888-69.888v-153.152z"  horiz-adv-x="1024" />

    
    <glyph glyph-name="tools" unicode="&#58888;" d="M196.461 83.622zM773.116-53.902c8.703 9.319 3.596 29.253-2.855 41.087l-43.477 79.37 24.373 44.91 53.424 0.767 42.219-76.15c9.382-16.89 28.611-24.587 35.289-24.185 11.257 0.641 27.53 15.457 32.498 27.404 10.135 24.398 9.093 53.388 10.477 76.717 2.515 43.917-11.042 85.104-41.427 125.765-30.713 40.899-78.338 62.643-126.921 64.793-28.259 1.258-59.662-0.805-68.416 7.156-21.518 19.595-26.699 23.216-50.093 43.59l92.663 106.647c48.319-38.195 60.468-44.647 65.649-45.715 10.513-2.163 21.846 3.333 40.446 19.619 28.713 25.152 117.427 110.045 112.119 149.459l-1.258 5.835c-11.318 37.73-237.833 242.978-276.997 240.814-10.752-0.592-22.034-3.433-40.937-19.997-28.788-25.152-114.533-118.218-112.371-149.22l1.258-5.899c2.049-5.723 4.238-16.752 63.46-66.655l-92.185-106.057c-31.027 27.668-13.306 9.546-41.2 35.818-13.595 12.803-10.74 24.787-11.382 34.082-0.315 4.578-0.277 9.546-0.263 15.18 0 3.861-1.635 6.099-1.698 10.614-1.811 102.335-75.031 184.61-166.034 187.427-7.722 0.076-32.46-3.673-41.063-12.803-7.345-7.822-8.464-19.405-2.314-29.945l50.306-95.292-25.078-39.729-49.437 3.671-41.565 74.83c-16.135 24.801-30.586 26.197-40.244 22.638-10.916-4.050-20.487-13.469-24.185-20.601-13.457-25.418-21.959-66.127-21.129-97.618-0.251 6.742-0.202-1.082 0.352-9.005v-0.063c0.327-4.603 0.818-9.143 1.483-13.582 12.702-86.689 82.74-151.949 162.94-151.772 10.702 0 19.469 0.516 27.115 0.969 24.322 1.371 31.731 2.629 52.432-16.148 30.185-27.404 11.205-10.326 47.237-41.063l-210.492-242.147c-3.283-3.773-7.043-10.375-6.289-20.45 1.17-16.79 32.308-53.287 54.683-72.755 28.511-24.775 82.313-55.651 99.757-35.617l210.492 242.16c22.814-20.009 30.096-24.562 49.601-43.111 2.302-3.773 1.258-10.715 1.862-17.179l0.189-2.754c0.604-11.23 0.981-21.179-0.441-31.806l0.339 0.955c-0.106-2.332-0.166-5.069-0.166-7.818 0-4.613 0.17-9.187 0.505-13.715l-0.036 0.265c6.502-92.915 78.678-165.757 164.299-165.795 16.186 0 37.73 6.967 42.458 12.073zM641.252 593.358l-13.255 11.747c-47.137 43.024-68.982 55.223-66.932 64.403 6.905 30.976 91.732 118.105 105.417 121.162 20.563 4.603 238.65-188.358 239.216-207.938 0.554-19.090-85.419-118.218-104.611-121.149-8.262-1.258-28.7 20.65-65.209 50.432l-12.199 10.212-118.432-136.228s-63.75 55.148-82.162 71.422l117.489 136.542zM279.051 10.754c-5.407 0.742-29.19 14.237-46.986 29.743-16.953 14.727-33.793 36.094-35.303 41.502l202.582 233.066s72.943-63.499 82.162-71.422zM730.017-23.454c-68.026 0-119.075 56.908-124.343 132.305-0.247 3.328-0.386 7.21-0.386 11.126 0 2.518 0.058 5.023 0.173 7.513l-0.013 0.653c0.773 6.558 1.215 14.153 1.215 21.853 0 4.928-0.181 9.813-0.535 14.649l-0.087 0.95c-1.258 13.104-2.993 24.801-9.269 33.729 0 0-214.064 184.798-249.554 216.931-29.781 26.964-47.237 26.587-76.793 24.863-7.131-0.402-15.331-0.892-25.266-0.906-63.574-0.113-119.274 52.758-129.537 123.073-0.502 3.308-0.919 7.168-1.194 11.079-0.233 3.138-0.366 6.797-0.366 10.487 0 3.067 0.091 6.112 0.273 9.134 1.238 22.121 1.326 32.283 11.94 51.148l45.2-75.761c3.869-7.772 11.717-13.042 20.805-13.145l70.853-5.154c0.41-0.026 0.889-0.041 1.372-0.041s0.961 0.015 1.436 0.045c7.536 0.535 14.069 4.669 17.895 10.689l32.269 57.697 2.302 4.854c2.201 6.125 2.063 12.4-1.685 19.493l-39.83 82.262c68.692-3.849 113.226-62.707 118.772-142.012 0.214-3.143 0.353-6.289 0.39-9.444 0.076-4.276 0.076-8.213 0-11.873 0-6.54 0-12.299 0.353-17.607 1.433-20.499 6.628-37.351 24.046-53.739 57.612-54.305 246.498-214.303 246.498-214.303 22.738-16.060 53.84-15.092 88.501-13.18s71.296-16.878 95.28-48.873c25.593-34.182 36.875-67.913 34.774-103.593-1.019-17.331 1.019-33.227-6.389-52.293l-53.929 91.367-99.090-1.471-45.917-80.414 52.331-91.972-0.818-0.076h-1.862z"  horiz-adv-x="1072" />

    
    <glyph glyph-name="dingdan1" unicode="&#59472;" d="M194.56 403.968l-0.512-0.512c-0.512-0.512-1.024-1.024-1.536-2.048 0 0 0-0.512-0.512-0.512 3.072 3.072 3.072 3.584 2.56 3.072zM214.016 403.456l-0.512-0.512c-0.512-0.512-1.024-1.024-1.536-2.048 0 0 0-0.512-0.512-0.512 2.56 2.56 2.56 3.072 2.56 3.072zM432.64 103.424c-0.512 0-0.512 0 0 0-2.048-0.512-6.656-1.024 0 0zM776.192 402.944c-1.536 24.064-20.48 42.496-44.032 42.496H302.08c-23.04 0-42.496-19.968-42.496-43.52s19.456-43.008 42.496-43.008h431.616c23.04 0 42.496 19.968 42.496 43.008v1.024zM418.304 744.448h200.704c30.208 0 56.32 1.024 56.32 35.84 0 35.328-25.6 50.688-57.344 50.688h-199.68c-31.744 0-57.344-15.36-57.344-50.688-0.512-35.328 25.6-35.84 57.344-35.84z m315.392-138.24H302.08c-23.04 0-42.496-19.968-42.496-43.008 0-23.552 19.456-43.52 42.496-43.52h431.616c23.04 0 42.496 19.968 42.496 43.52 0 23.04-19.456 43.008-42.496 43.008z m-1.536-335.872H302.08c-23.04 0-42.496-19.968-42.496-43.52s19.456-43.008 42.496-43.008h431.616c23.04 0 42.496 19.968 42.496 43.008v1.024c-1.536 24.576-20.48 42.496-44.032 42.496zM921.088 778.24c-18.432 19.456-47.616 37.888-87.552 37.888h-57.344c-23.04 0-47.616-15.36-47.616-39.424 0-23.04 23.552-23.04 47.616-23.04h57.344c26.624 0 44.032-17.408 44.032-44.544v-670.208c0-27.136-17.408-44.544-44.032-44.544H215.04c-27.648 0-58.88 18.944-58.88 44.544V709.12c0 27.136 17.408 44.544 44.032 44.544h72.192c20.992 0 35.328-4.608 35.328 23.04 0 24.576-13.312 39.424-35.328 39.424H200.192c-80.384 0-105.472-26.112-105.472-108.544v-662.528c0-82.944 29.696-113.152 111.616-113.152h621.056c86.528 0 111.616 25.6 111.616 113.152V707.584c0 31.744-1.536 52.736-17.92 70.656z"  horiz-adv-x="1024" />

    
    <glyph glyph-name="user1" unicode="&#58895;" d="M947.924-67.761c0-21.751-17.62-39.371-39.353-39.371-21.751 0-39.371 17.62-39.371 39.371l-0.353 3.655c0 1.554 0.282 3.054 0.441 4.59-24.576 172.791-172.721 299.767-353.103 301.762-1.448-0.035-2.825-0.23-4.29-0.23-1.43 0-2.807 0.194-4.237 0.23-178.317-1.977-325.049-126.146-352.097-295.936 0.9-3.337 1.536-6.78 1.536-10.399l0.371-3.708c0-22.087-17.902-39.989-39.971-39.989s-39.989 17.902-39.989 39.989l-0.035 0.353-0.759-0c0.106 1.165 0.335 2.278 0.459 3.425 0 3.302 0.53 6.426 1.271 9.498 20.498 159.303 127.241 288.097 272.525 343.57-84.586 54.201-139.741 149.963-139.741 259.372 0 169.225 131.478 306.406 300.703 306.406 169.207 0 300.703-137.181 300.703-306.406 0-109.374-55.102-205.118-139.652-259.319 144.278-55.031 250.545-182.325 272.19-340.039 1.465-4.131 2.436-8.527 2.436-13.171l0.318-3.655zM743.495 548.334c0 127.947-103.706 231.654-231.654 231.654s-231.654-103.724-231.654-231.654c0-127.929 103.724-231.636 231.654-231.636s231.654 103.706 231.654 231.636z"  horiz-adv-x="1024" />

    
    <glyph glyph-name="tuandui" unicode="&#58960;" d="M629.956 409.481c44.718 34.903 73.61 88.978 73.61 149.734 0 105.01-85.99 190.453-191.72 190.453s-191.72-85.444-191.72-190.453c0-60.756 28.886-114.83 73.609-149.734-117.862-46.786-201.415-161.14-201.415-294.66v-63.467c0-17.554 14.295-31.75 31.943-31.75h575.16c17.653 0 31.944 14.196 31.944 31.75V114.82c0.001 133.572-83.552 247.876-201.411 294.661zM373.152 559.466c0 75.995 62.198 137.774 138.694 137.774 76.492 0 138.693-61.78 138.693-137.774 0-75.976-62.2-137.774-138.693-137.774-76.496 0-138.694 61.773-138.694 137.774z m410.165-487.78h-542.97v33.713c0 148.708 121.79 269.705 271.523 269.705 149.68 0 271.447-120.997 271.447-269.705v-33.713zM264.212 380.05l6.24 1.489c13.4 4.453 22.945 16.136 22.945 29.858 0 13.253-8.924 24.586-21.575 29.36-34.212 15.44-56.284 49.323-56.284 86.663 0 42.311 36.768 77.958 75.251 90.315 6.737 20.659 16.928 39.777 29.904 56.681a214.079 214.079 0 0 0 7.137 10.963c-2.584 0.124-5.045 0.768-7.703 0.768-88.083 0-159.775-71.196-159.775-158.728 0-40.175 15.41-77.838 41.564-106.478C118.734 378.134 64.49 292.518 64.49 195.661v-49.096c0-17.553 14.296-31.745 31.944-31.745h57.25c0 21.75 2.24 35.695 6.44 56.208h-40.446V195.66c0 87.736 59.365 163.034 144.535 184.39z m557.213 40.892c26.155 28.64 41.565 66.303 41.565 106.478 0 87.533-71.67 158.756-159.776 158.756-2.66 0-5.12-0.649-7.704-0.771a213.392 213.392 0 0 0 7.137-10.963c12.978-16.904 23.167-36.022 29.881-56.683 38.484-12.352 80.57-48.004 80.57-90.314 0-37.341-22.101-71.248-56.284-86.664-12.655-4.77-21.58-16.107-21.58-29.36 0-13.723 9.574-25.406 22.946-29.853l6.24-1.493c85.199-21.38 144.536-96.655 144.536-184.413v-24.632h-45.79c4.225-20.514 6.44-34.458 6.44-56.209h57.25c17.677 0 31.945 14.192 31.945 31.745v49.096c0.052 96.856-54.193 182.472-137.376 225.28z m0 0"  horiz-adv-x="1024" />

    
    <glyph glyph-name="chanzhifenxibaobiao" unicode="&#58906;" d="M503.747036 765.631814l-54.151318-1.586125C235.169067 748.353288 65.439408 570.020694 65.439408 351.870232c0-228.488925 185.190793-413.700183 414.032758-413.700183 218.494293 0 396.85861 169.867806 412.667667 383.992581l1.363044 53.937446H503.747036v389.531738z m333.932441-445.307042c-15.836687-194.10379-170.176844-328.223417-358.496907-328.223417-198.885699 0-360.15671 161.100118-360.15671 359.700315 0 188.057073 134.478807 342.269317 328.859913 358.120331v-389.598253h389.793704v0.001024zM556.503587 428.806485h403.880537c0 241.218854-181.638897 403.579685-403.880537 403.579685V428.806485z m53.365418 340.513324c32.393781-4.627391 50.052976-12.32777 75.325569-23.000853 42.952254-18.11559 80.018451-44.099381 113.156176-77.19208 33.146934-33.094746 58.419528-68.771293 76.586283-111.669312 10.694573-25.231661 17.630542-43.029002 22.293749-75.376735H609.869005V769.319809z"  horiz-adv-x="1024" />

    
    <glyph glyph-name="qian1" unicode="&#58894;" d="M512 896C229.7 896 0 666.3 0 384s229.7-512 512-512 512 229.7 512 512S794.3 896 512 896z m0-969.1C260-73.1 54.9 132 54.9 384 54.9 636 260 841.1 512 841.1S969.1 636 969.1 384c0-252-205.1-457.1-457.1-457.1z m123.9 724.9L554.6 502c-21.7-40.6-34.9-67.6-39.8-81h-1.4c-14.3 32.5-54.6 109.4-121.1 230.8h-76.5L458 407.5H341.4v-54h136.7v-74.4H341.4v-54.6h136.7v-108.3h67.8V224.5h131.8v54.6H545.9v74.4h131.8v54H564.6l143.6 244.3h-72.3z"  horiz-adv-x="1024" />

    
    <glyph glyph-name="caidan-copy" unicode="&#58880;" d="M390.095 896h-292.571c-53.638 0-97.524-43.886-97.524-97.524v-292.571c0-53.638 43.886-97.524 97.524-97.524h292.571c53.638 0 97.524 43.886 97.524 97.524v292.571c0 53.638-43.886 97.524-97.524 97.524zM438.857 505.905c0-26.819-21.943-48.762-48.762-48.762h-292.571c-26.819 0-48.762 21.943-48.762 48.762v292.571c0 26.819 21.943 48.762 48.762 48.762h292.571c26.819 0 48.762-21.943 48.762-48.762v-292.571zM926.476 896h-292.571c-53.638 0-97.524-43.886-97.524-97.524v-292.571c0-53.638 43.886-97.524 97.524-97.524h292.571c53.638 0 97.524 43.886 97.524 97.524v292.571c0 53.638-43.886 97.524-97.524 97.524zM975.238 505.905c0-26.819-21.943-48.762-48.762-48.762h-292.571c-26.819 0-48.762 21.943-48.762 48.762v292.571c0 26.819 21.943 48.762 48.762 48.762h292.571c26.819 0 48.762-21.943 48.762-48.762v-292.571zM390.095 359.619h-292.571c-53.638 0-97.524-43.886-97.524-97.524v-292.571c0-53.638 43.886-97.524 97.524-97.524h292.571c53.638 0 97.524 43.886 97.524 97.524v292.571c0 53.638-43.886 97.524-97.524 97.524zM438.857-30.476c0-26.819-21.943-48.762-48.762-48.762h-292.571c-26.819 0-48.762 21.943-48.762 48.762v292.571c0 26.819 21.943 48.762 48.762 48.762h292.571c26.819 0 48.762-21.943 48.762-48.762v-292.571zM926.476 359.619h-292.571c-53.638 0-97.524-43.886-97.524-97.524v-292.571c0-53.638 43.886-97.524 97.524-97.524h292.571c53.638 0 97.524 43.886 97.524 97.524v292.571c0 53.638-43.886 97.524-97.524 97.524zM975.238-30.476c0-26.819-21.943-48.762-48.762-48.762h-292.571c-26.819 0-48.762 21.943-48.762 48.762v292.571c0 26.819 21.943 48.762 48.762 48.762h292.571c26.819 0 48.762-21.943 48.762-48.762v-292.571z"  horiz-adv-x="1027" />

    
    <glyph glyph-name="calendar" unicode="&#59245;" d="M663.936 292.096h96.128v-96.128h-96.128v96.128zM463.936 292.096h96.064v-96.128h-96.064v96.128zM463.936 432.064h96.064v-96.064h-96.064v96.064zM663.936 432.064h96.128v-96.064h-96.128v96.064zM871.936 752.064h-71.936v51.84c-1.238 14.52-13.329 25.837-28.064 25.837s-26.826-11.317-28.057-25.733l-0.007-51.944h-463.808v51.84c-1.414 14.355-13.424 25.478-28.032 25.478s-26.618-11.123-28.023-25.362l-0.009-51.956h-71.936c-48.576-0.064-88.064-39.616-88.064-88.192v-639.872c0-48.512 39.488-88 88.064-88h719.872c48.576 0 88.064 39.488 88.064 88.064v639.872c0 48.576-39.488 88.064-88.064 88.064zM252.032 615.808c15.497 0.073 28.032 12.652 28.032 28.16 0 0-0 0-0 0l0 51.84h463.808v-51.84c0.735-14.929 13.019-26.755 28.064-26.755s27.329 11.826 28.061 26.69l0.003 51.906h71.936c17.623-0.036 31.9-14.313 31.936-31.933l0-111.875h-783.744v111.936c-0 0-0 0-0 0 0 17.651 14.29 31.964 31.933 32l71.939 0v-51.968c0-15.488 12.544-28.096 28.032-28.096zM903.872 24c-0.036-17.623-14.313-31.9-31.933-31.936l-719.875-0c-0-0-0-0-0-0-17.651 0-31.964 14.29-32 31.933l-0 471.939h783.808v-471.872zM463.936 152h96.064v-96.064h-96.064v96.128zM263.936 292.16h96.128v-96.128h-96.128v96.064zM263.936 152.192h96.128v-96.128h-96.128v96.128zM263.936 432.128h96.128v-96.128h-96.128v96.064z"  horiz-adv-x="1024" />

    
    <glyph glyph-name="haiguanshuju-" unicode="&#59538;" d="M670.4128 60.1088c0 12.151467-8.9088 22.016-19.831467 22.016h-277.162666c-10.922667 0-19.797333-9.8304-19.797334-22.016v-87.9616h-197.973333V-93.866667h712.669867v66.013867H670.378667v87.9616h0.034133zM957.2352 861.866667H66.798933C29.9008 861.866667 0 832.375467 0 795.921067v-615.970134c0-36.420267 29.9008-66.013867 66.798933-66.013866h890.436267c36.864 0 66.7648 29.559467 66.7648 66.013866V795.921067A66.3552 66.3552 0 0 1 957.2352 861.866667z m0-659.899734a22.186667 22.186667 0 0 0-22.254933-22.016H89.053867a22.152533 22.152533 0 0 0-22.254934 22.016V773.9392c0 12.151467 9.966933 21.981867 22.254934 21.981867h845.9264c12.253867 0 22.254933-9.8304 22.254933-21.981867v-571.972267zM729.156267 244.053333h120.4224V590.5408h-120.4224V244.053333z m-192.682667 0h120.456533V697.173333h-120.456533V244.053333z m-361.301333 0H295.594667v133.256534H175.172267V244.053333z m168.618666 0H464.213333v239.9232h-120.4224V244.053333z"  horiz-adv-x="1024" />

    
    <glyph glyph-name="zan2" unicode="&#58905;" d="M861.577 467.305h-223.037c86.425 319.186-59.547 335.487-59.547 335.487-61.867 0-49.042-48.918-53.716-57.076 0-156.096-165.796-278.407-165.796-278.407v-442.661c0-43.695 59.547-59.433 82.908-59.433h335.111c31.537 0 57.221 82.709 57.221 82.709 82.903 281.911 82.903 365.789 82.903 365.789 0.001 58.247-56.046 53.591-56.046 53.591v0 0zM861.577 467.305zM267.943 467.159h-133.553c-27.581 0-28.006-27.090-28.006-27.090l27.581-446.441c0-28.416 28.464-28.416 28.464-28.416h115.593c24.081 0 23.865 18.798 23.865 18.798v449.296c0 34.287-33.945 33.854-33.945 33.854v0 0zM267.943 467.159z"  horiz-adv-x="1024" />

    
    <glyph glyph-name="tuandui1" unicode="&#58961;" d="M629.76 409.6c44.544 34.816 73.728 89.088 73.728 149.504 0 104.96-86.016 190.464-191.488 190.464S320 664.064 320 559.104c0-60.928 28.672-114.688 73.728-149.504-117.76-46.592-201.216-161.28-201.216-294.912V51.2c0-17.408 14.336-31.744 31.744-31.744h574.976c17.408 0 31.744 14.336 31.744 31.744v63.488c0.512 133.632-82.944 247.808-201.216 294.912zM373.248 559.616c0 75.776 61.952 137.728 138.752 137.728 76.288 0 138.752-61.952 138.752-137.728 0-75.776-61.952-137.728-138.752-137.728-76.8 0-138.752 61.44-138.752 137.728zM783.36 71.68H240.64v33.792c0 148.48 121.856 269.824 271.36 269.824s271.36-120.832 271.36-269.824v-33.792zM264.192 379.904l6.144 1.536c13.312 4.608 23.04 16.384 23.04 29.696 0 13.312-8.704 24.576-21.504 29.184-34.304 15.36-56.32 49.152-56.32 86.528 0 42.496 36.864 77.824 75.264 90.112 6.656 20.48 16.896 39.936 29.696 56.832 2.048 3.584 4.608 7.168 7.168 10.752-2.56 0-5.12 1.024-7.68 1.024-88.064 0-159.744-71.168-159.744-158.72 0-39.936 15.36-77.824 41.472-106.496-82.944-43.008-137.216-128.512-137.216-225.28v-49.152c0-17.408 14.336-31.744 31.744-31.744H153.6c0 21.504 2.048 35.84 6.656 56.32h-40.448v24.576c0 88.576 59.392 163.84 144.384 184.832z m557.056 40.96c26.112 28.672 41.472 66.048 41.472 106.496 0 87.552-71.68 158.72-159.744 158.72-2.56 0-5.12-0.512-7.68-1.024 2.56-3.584 5.12-7.168 7.168-10.752 12.8-16.896 23.04-35.84 29.696-56.832 38.4-12.288 80.384-48.128 80.384-90.112 0-37.376-22.016-71.168-56.32-86.528-12.8-4.608-21.504-15.872-21.504-29.184 0-13.824 9.728-25.6 23.04-29.696l6.144-1.536c84.992-21.504 144.384-96.768 144.384-184.32v-24.576h-45.568c4.096-20.48 6.656-34.304 6.656-56.32H926.72c17.92 0 31.744 14.336 31.744 31.744v49.152c0.512 96.256-53.76 182.272-137.216 224.768z"  horiz-adv-x="1024" />

    
    <glyph glyph-name="tijiao" unicode="&#59033;" d="M512 896C230.4 896 0 665.6 0 384s230.4-512 512-512 512 230.4 512 512S793.6 896 512 896z m0-960C265.6-64 64 137.6 64 384S265.6 832 512 832s448-201.6 448-448-201.6-448-448-448zM537.6 665.6c-16 12.8-38.4 12.8-54.4 0l-208-169.6c-12.8-9.6-16-32-3.2-44.8 9.6-12.8 32-16 44.8-3.2L480 579.2v-496c0-19.2 12.8-32 32-32s32 12.8 32 32V579.2l163.2-134.4c6.4-6.4 12.8-6.4 19.2-6.4 9.6 0 19.2 3.2 25.6 12.8 9.6 12.8 9.6 35.2-3.2 44.8l-211.2 169.6z"  horiz-adv-x="1024" />

    
    <glyph glyph-name="selected" unicode="&#58903;" d="M512.75 894.459c-282.345 0-511.23-228.885-511.23-511.23s228.885-511.229 511.23-511.229 511.229 228.885 511.229 511.23-228.885 511.228-511.23 511.228zM762.88 509.67l-286.35-341.257c-15.991-19.056-44.402-21.542-63.458-5.552l-4.026 3.378c-5.771 4.87-10.265 11.072-13.029 18.142l-120.15 111.849c-19.056 15.99-21.542 44.4-5.551 63.457l3.377 4.026c15.99 19.056 44.402 21.542 63.458 5.551l101.016-98.247 251.679 299.938c15.99 19.056 44.4 21.542 63.457 5.551l4.025-3.378c19.055-15.99 21.541-44.4 5.552-63.457z"  horiz-adv-x="1024" />

    
    <glyph glyph-name="dianziyouxiang" unicode="&#58901;" d="M924.672 738.304h-825.856c-45.568 0-82.944-37.376-82.944-82.944v-506.88c0-46.08 37.376-82.944 82.944-82.944H924.672c46.08 0 82.944 37.376 82.944 82.944v506.368c0 46.08-36.864 83.456-82.944 83.456m-19.456-59.904l-329.216-291.84c-28.672-25.6-50.176-38.4-63.488-38.4s-34.816 12.8-63.488 38.4l-329.216 291.84H905.216m-827.392-510.976V624.64l257.024-225.792-257.024-231.424m43.52-41.984l258.048 229.376 42.496-37.376c24.576-21.504 54.784-32.256 90.624-32.256s66.048 11.264 90.624 32.256l42.496 37.376 258.048-229.376h-782.336m824.832 41.984L689.152 399.36l257.024 225.28v-457.216m0 0"  horiz-adv-x="1024" />

    
    </font>
</defs>
</svg>
